<svg width="19" height="14" viewBox="0 0 19 14" fill="none" xmlns="http://www.w3.org/2000/svg">
<path d="M10 10.588L12.062 9.22401C12.223 9.73101 13.246 10.937 14.538 10.937C15.831 10.937 16.431 10.231 16.431 9.763C16.431 8.488 15.111 8.03801 14.477 7.82201C14.374 7.78701 14.289 7.758 14.231 7.733C14.201 7.72 14.156 7.702 14.098 7.68C13.393 7.411 10.792 6.417 10.792 3.537C10.792 0.365003 13.854 0 14.546 0C14.999 0 17.177 0.0560017 18.261 2.094L16.261 3.49001C15.823 2.60101 15.095 2.30801 14.646 2.30801C13.539 2.30801 13.308 3.12001 13.308 3.49001C13.308 4.52701 14.511 4.992 15.527 5.384C15.793 5.487 16.046 5.585 16.261 5.686C17.369 6.21 19 7.066 19 9.763C19 11.113 17.867 13.3 15.015 13.3C11.185 13.3 10.169 11 10 10.588Z" fill="#BFBFD4"/>
<path d="M0 10.859L2.149 9.49499C2.317 10.003 2.971 10.938 3.92 10.938C4.87 10.938 5.356 9.96299 5.356 9.49499V0.299988H7.998V9.49499C8.041 10.763 7.338 13.3 4.233 13.3C1.379 13.3 0.192 11.604 0 10.859Z" fill="#BFBFD4"/>
</svg>
