<svg viewBox="0 0 158 141" fill="none" xmlns="http://www.w3.org/2000/svg">
<path d="M133.644 46.7898C130.867 45.7808 127.965 44.772 124.936 43.8891C125.693 40.8623 126.324 37.8355 126.829 34.9348C129.479 18.2872 126.577 6.55811 118.5 2.01786C116.102 0.630559 113.452 0 110.423 0C101.59 0 90.3578 6.55817 79 17.5304C67.6422 6.55817 56.4105 0 47.5766 0C44.5479 0 41.8978 0.630559 39.5 2.01786C31.4233 6.68422 28.5207 18.4133 31.1709 34.9348C31.6757 37.8355 32.3067 40.8623 33.0639 43.8891C30.0351 44.772 27.1326 45.6547 24.3562 46.7898C8.58146 52.8434 0 61.1673 0 70.5C0 79.8327 8.70766 88.1566 24.3562 94.2103C27.1326 95.2192 30.0351 96.228 33.0639 97.1109C32.3067 100.138 31.6757 103.165 31.1709 106.065C28.5207 122.713 31.4233 134.442 39.5 138.982C41.8978 140.369 44.5479 141 47.5766 141C56.5367 141 67.7684 134.442 79 123.47C90.3578 134.442 101.59 141 110.423 141C113.452 141 116.102 140.369 118.5 138.982C126.577 134.316 129.479 122.587 126.829 106.065C126.324 103.165 125.693 100.138 124.936 97.1109C127.965 96.228 130.867 95.3453 133.644 94.2103C149.419 88.1566 158 79.8327 158 70.5C158 61.1673 149.419 52.8434 133.644 46.7898ZM114.966 8.32376C120.141 11.3506 121.907 20.6834 119.762 33.9258C119.383 36.5743 118.752 39.3488 117.995 42.2495C111.433 40.7361 104.492 39.7272 97.1726 39.0966C92.8818 33.0429 88.4649 27.6198 84.0479 22.7012C93.3866 13.4946 102.851 7.18882 110.55 7.18882C112.19 7.18882 113.704 7.56705 114.966 8.32376ZM100.832 83.1118C98.5607 87.1476 95.9106 91.1833 93.1342 95.2191C88.4649 95.5975 83.7955 95.7236 79 95.7236C74.0783 95.7236 69.4089 95.5975 64.8658 95.2191C62.0894 91.1833 59.5655 87.1476 57.2939 83.1118C54.8961 78.9499 52.6246 74.6619 50.6054 70.5C52.6246 66.3381 54.8961 62.0501 57.2939 57.8882C59.5655 53.8524 62.2157 49.8167 64.992 45.7809C69.6614 45.4025 74.3306 45.2764 79.1262 45.2764C84.0479 45.2764 88.7172 45.4025 93.2604 45.7809C96.0367 49.8167 98.5607 53.8524 100.832 57.8882C103.23 62.0501 105.502 66.3381 107.521 70.5C105.375 74.6619 103.23 78.8238 100.832 83.1118ZM111.307 78.9498C113.2 83.364 114.714 87.6521 116.102 91.9401C111.812 92.949 107.268 93.7057 102.473 94.3363C103.987 91.9401 105.628 89.4177 107.016 86.7693C108.53 84.1208 109.919 81.4722 111.307 78.9498ZM79 113.128C75.9712 109.849 73.0687 106.318 70.2923 102.66C73.1949 102.786 76.0974 102.912 79 102.912C81.9026 102.912 84.8051 102.786 87.7077 102.66C84.9313 106.318 82.0288 109.849 79 113.128ZM55.5272 94.2103C50.7317 93.5797 46.1885 92.8229 41.8977 91.814C43.2859 87.6521 44.8003 83.2379 46.6933 78.8238C48.0815 81.3461 49.4696 83.9946 50.984 86.5169C52.4984 89.2915 54.0128 91.6879 55.5272 94.2103ZM46.6933 62.0502C44.8003 57.636 43.2859 53.348 41.8977 49.0599C46.1885 48.051 50.7317 47.2943 55.5272 46.6637C54.0128 49.0599 52.3722 51.5823 50.984 54.2307C49.4696 56.8792 48.0815 59.5278 46.6933 62.0502ZM79 27.8721C82.0288 31.1511 84.9313 34.6825 87.7077 38.3399C84.8051 38.2138 81.9026 38.0877 79 38.0877C76.0974 38.0877 73.1949 38.2138 70.2923 38.3399C73.0687 34.6825 75.9712 31.1511 79 27.8721ZM107.016 54.3568L102.473 46.7898C107.268 47.4203 111.812 48.1771 116.102 49.186C114.714 53.3479 113.2 57.7621 111.307 62.1762C109.919 59.5278 108.53 56.8792 107.016 54.3568ZM38.238 33.9258C36.0927 20.6834 37.8594 11.3506 43.0335 8.32376C44.2955 7.56705 45.8099 7.18882 47.4505 7.18882C55.0224 7.18882 64.4872 13.3685 73.9521 22.7012C69.5351 27.4937 65.1182 33.0429 60.8274 39.0966C53.5079 39.7272 46.5671 40.8622 40.0047 42.2495C39.2476 39.3488 38.7428 36.5743 38.238 33.9258ZM7.06706 70.5C7.06706 64.5725 14.2604 58.2665 26.8802 53.6002C29.4042 52.5912 32.1805 51.7084 34.9568 50.9517C36.976 57.2576 39.5 63.9418 42.5287 70.6261C39.5 77.3103 36.8498 83.8685 34.9568 90.1744C17.5415 85.1297 7.06706 77.5626 7.06706 70.5ZM43.0335 132.676C37.8594 129.649 36.0927 120.317 38.238 107.074C38.6166 104.426 39.2476 101.651 40.0047 98.7505C46.5671 100.264 53.5079 101.273 60.8274 101.903C65.1182 107.957 69.5351 113.38 73.9521 118.299C64.6134 127.505 55.1486 133.811 47.4505 133.811C45.8099 133.811 44.2955 133.433 43.0335 132.676ZM119.762 107.074C121.907 120.317 120.141 129.649 114.966 132.676C113.704 133.433 112.19 133.811 110.55 133.811C102.978 133.811 93.5128 127.631 84.0479 118.299C88.4649 113.506 92.8818 107.957 97.1726 101.903C104.492 101.273 111.433 100.138 117.995 98.7505C118.752 101.651 119.257 104.426 119.762 107.074ZM131.12 87.3998C128.596 88.4088 125.82 89.2916 123.043 90.0483C121.024 83.7424 118.5 77.0582 115.471 70.3739C118.5 63.6897 121.15 57.1315 123.043 50.8256C140.459 55.8703 150.933 63.4374 150.933 70.5C150.933 76.4275 143.613 82.7335 131.12 87.3998Z" fill="#3F3F43"/>
</svg>
