<svg width="23" height="16" viewBox="0 0 23 16" fill="none" xmlns="http://www.w3.org/2000/svg">
<path d="M0.0758972 2.107L0.065918 3.41701H2.1489H4.2309V9.33501V15.252H5.70392H7.17691V9.33501V3.41701H9.25992H11.3419V2.13201C11.3419 1.42101 11.3269 0.827012 11.3069 0.811012C11.2919 0.791012 8.7569 0.781002 5.6839 0.786002L0.0909119 0.801002L0.0758972 2.107Z" fill="#BFBFD4"/>
<path d="M18.8209 0.764017C19.6339 0.967017 20.2529 1.32802 20.8219 1.91702C21.1169 2.23202 21.5539 2.806 21.5889 2.943C21.5989 2.983 20.2079 3.918 19.3649 4.441C19.3339 4.462 19.2119 4.32902 19.0749 4.12602C18.6639 3.52702 18.2319 3.26801 17.5719 3.22201C16.6009 3.15601 15.9769 3.664 15.9819 4.512C15.9819 4.761 16.0169 4.90901 16.1189 5.11201C16.3319 5.55401 16.7279 5.81801 17.9729 6.35601C20.2639 7.34201 21.2439 7.99201 21.8529 8.91601C22.5339 9.94701 22.6859 11.593 22.2239 12.817C21.7159 14.148 20.4569 15.052 18.6839 15.352C18.1349 15.448 16.8349 15.433 16.2459 15.326C14.9609 15.098 13.7419 14.463 12.9899 13.63C12.6949 13.305 12.1209 12.456 12.1569 12.396C12.1719 12.375 12.3039 12.294 12.4519 12.208C12.5939 12.126 13.1319 11.816 13.6399 11.522L14.5589 10.989L14.7519 11.273C15.0219 11.684 15.6109 12.248 15.9659 12.436C16.9869 12.975 18.3889 12.898 19.0799 12.279C19.3749 12.009 19.4969 11.73 19.4969 11.319C19.4969 10.948 19.4509 10.785 19.2579 10.506C19.0089 10.15 18.5009 9.85101 17.0579 9.22601C15.4079 8.51501 14.6969 8.073 14.0459 7.372C13.6709 6.966 13.3149 6.31601 13.1679 5.77201C13.0459 5.32001 13.0149 4.187 13.1119 3.73C13.4519 2.135 14.6559 1.023 16.3929 0.693002C16.9569 0.586002 18.2669 0.627017 18.8209 0.764017Z" fill="#BFBFD4"/>
</svg>
