<svg width="521" height="522" viewBox="0 0 521 522" fill="none" xmlns="http://www.w3.org/2000/svg">
<path d="M30.2 0.849976H491.15C506.775 0.849976 520.85 14.925 520.85 30.55V491.5C520.85 507.125 506.775 521.2 491.15 521.2H30.2C14.575 521.2 0.5 507.125 0.5 491.5V30.55C0.5 14.925 14.575 0.849976 30.2 0.849976ZM370.025 293.025H441.9L445.025 224.275H370.025V173.5C370.025 153.975 373.925 143.025 398.925 143.025H442.675L444.25 78.95C444.25 78.95 424.725 75.825 396.6 75.825C327.85 75.825 297.375 118.8 297.375 164.9V224.275H246.6V293.025H297.375V483.65H370.025V293.025Z" fill="#ACA9BB"/>
</svg>
