<svg width="394" height="155" viewBox="0 0 394 155" fill="none" xmlns="http://www.w3.org/2000/svg">
<path fill-rule="evenodd" clip-rule="evenodd" d="M0.00300002 15.759L0 15.57V0.427H15.11V111.495L15.117 111.841V126.827H0V111.684L0.00300002 111.494V15.759ZM153.656 80.795C154.044 103.768 168.258 122.14 185.405 121.832C202.549 121.524 216.13 102.652 215.742 79.679C215.352 56.703 201.138 38.331 183.991 38.642C166.847 38.95 153.265 57.822 153.656 80.795ZM278.774 53.019C279.169 53.894 278.232 51.711 278.232 51.711L278.774 53.019ZM289.073 148.126C289.765 146.94 290.73 145.126 291.878 142.858L289.073 148.126ZM289.961 45.093C290.144 45.603 290.355 46.135 290.592 46.696L295.681 59.23L289.961 45.093ZM226.644 108.186C235.984 116.715 244.394 121.123 255.147 121.123C266.154 121.207 275.94 115.791 275.94 105.368C275.94 96.669 268.274 91.581 254.577 85.755C242.97 80.702 234.332 77.159 229.817 69.845C230.369 73.023 230.657 76.306 230.657 79.666C230.657 107.878 210.317 130.752 185.225 130.752C160.133 130.752 139.793 107.878 139.793 79.666C139.793 62.657 147.186 47.591 158.553 38.306H127.808V111.495L127.811 111.787V126.827H114.155V112.277C114.165 112.021 114.168 111.761 114.168 111.495V38.305H102.128V29.094H114.344C115.922 10.511 127.365 0 143.207 0C153.48 0 159.12 1.078 162.377 2.594V15.192C162.327 16.132 162.327 16.705 162.327 16.705C162.185 16.689 161.848 16.683 161.848 16.683C156.904 12.094 152.028 8.68 140.636 8.693C131.562 8.693 125.56 16.109 127.656 29.094H178.765C180.901 28.7529 183.061 28.5813 185.225 28.581C203.427 28.581 219.131 40.617 226.381 58.001C226.313 57.037 226.281 56.03 226.281 54.978C226.281 36.84 243.733 29.126 261.861 29.165C262.554 29.161 263.233 29.165 263.901 29.181C270.281 29.078 279.371 31.171 284.921 32.641L295.681 59.23L311.058 96.96L312.863 103.02L314.873 96.96L334.319 48.53C337.907 35.196 352.108 29.424 367.793 29.456C375.59 29.421 381.349 30.366 388.255 32.81V47.457C379.752 41.24 373.663 37.627 364.015 37.627C355.535 37.627 345.343 41.404 345.343 53.96C345.179 63.396 350.806 65.12 367.318 73.364C380.89 79.292 393.411 85.836 393.485 100.992C393.485 126.261 368.739 130.637 356.693 130.676C345.939 130.676 336.083 128.005 330.6 123.416V106.735L331.482 107.469C341.264 116.658 349.908 121.419 361.079 121.419C372.089 121.503 381.871 116.084 381.871 105.66C381.871 96.962 374.205 91.874 360.508 86.048C347.417 80.348 338.828 76.57 335.317 67.128C329.978 80.225 305.146 141.064 299.301 154.068H285.911L291.971 142.686C295.328 136.036 300.211 125.603 304.549 115.622L278.774 53.019C278.283 51.9162 277.796 50.8122 277.315 49.705C275.337 45.171 273.497 40.984 267.931 38.875C264.949 37.865 261.775 37.335 258.084 37.335C249.604 37.335 238.757 41.112 238.757 53.668C238.593 63.104 244.871 64.828 261.387 73.068C274.959 79 287.479 85.544 287.553 100.7C287.553 125.969 262.803 130.342 250.758 130.384C241.197 130.384 232.341 128.271 226.644 124.577V108.186ZM43.309 30.037L43.477 41.092L43.467 41.836L43.614 41.832C43.791 41.371 44.028 40.98 44.252 40.688C49.802 34.702 56.799 28.754 73.426 28.754C89.342 28.754 99.644 42.358 100.057 50.922L100.073 111.495V126.827H86.434V108.767L86.431 57.2C86.431 46.523 77.117 38.803 65.715 38.803C56.237 38.803 44.073 47.383 43.669 56.068V111.511L43.675 111.918V126.84H30.029V42.766L30.033 30.036L43.309 30.037Z" fill="#3781C2"/>
</svg>
