<svg width="651" height="651" viewBox="0 0 651 651" fill="none" xmlns="http://www.w3.org/2000/svg">
<path d="M338.001 34C338.001 34 415.784 41.071 514.778 140.066C613.771 239.061 620.844 316.843 620.844 316.843" stroke="#ACA9BB" stroke-width="50" stroke-linecap="round"/>
<path d="M362.568 149.855C362.568 149.855 395.568 159.283 445.064 208.78C494.561 258.278 503.991 291.276 503.991 291.276" stroke="#ACA9BB" stroke-width="50" stroke-linecap="round"/>
<path d="M446.484 443.457L461.668 427.473L425.414 393.04L410.231 409.023L446.484 443.457ZM511.624 420.743L575.308 457.4L600.251 414.067L536.568 377.41L511.624 420.743ZM587.598 533.397L540.244 583.25L576.498 617.683L623.851 567.83L587.598 533.397ZM511.754 599.223C463.921 603.947 339.111 599.917 203.639 457.29L167.387 491.723C315.031 647.167 455.871 654.983 516.665 648.983L511.754 599.223ZM203.639 457.29C74.4355 321.26 52.7628 206.519 50.0615 156.191L0.133502 158.871C3.44184 220.512 29.6145 346.677 167.387 491.723L203.639 457.29ZM249.484 236.053L259.045 225.988L222.792 191.553L213.231 201.619L249.484 236.053ZM266.555 100.671L224.523 41.221L183.697 70.0866L225.729 129.536L266.555 100.671ZM82.2565 28.4043L29.9365 83.4873L66.1892 117.922L118.509 62.8387L82.2565 28.4043ZM231.358 218.836C213.231 201.619 213.209 201.643 213.185 201.667C213.177 201.676 213.154 201.701 213.138 201.717C213.106 201.751 213.074 201.786 213.041 201.821C212.976 201.892 212.908 201.965 212.838 202.042C212.698 202.196 212.55 202.362 212.394 202.542C212.082 202.9 211.739 203.31 211.373 203.773C210.64 204.699 209.811 205.837 208.942 207.196C207.198 209.921 205.307 213.51 203.705 218.011C200.449 227.163 198.674 239.283 200.891 254.419C205.248 284.157 224.734 324.147 275.645 377.747L311.898 343.313C264.311 293.21 252.588 262.353 250.363 247.17C249.29 239.845 250.38 235.986 250.812 234.774C251.054 234.092 251.213 233.903 251.057 234.146C250.982 234.263 250.832 234.484 250.58 234.802C250.454 234.962 250.303 235.146 250.121 235.354C250.031 235.458 249.932 235.569 249.826 235.685C249.773 235.744 249.718 235.803 249.661 235.865C249.633 235.895 249.604 235.926 249.574 235.958C249.56 235.973 249.537 235.997 249.53 236.005C249.507 236.029 249.484 236.053 231.358 218.836ZM275.645 377.747C326.408 431.19 364.745 452.2 393.995 456.95C409.005 459.387 421.154 457.44 430.354 453.813C434.851 452.04 438.408 449.957 441.078 448.063C442.411 447.117 443.521 446.22 444.415 445.437C444.865 445.043 445.258 444.677 445.601 444.343C445.774 444.18 445.934 444.02 446.081 443.873C446.154 443.8 446.224 443.727 446.291 443.657C446.324 443.623 446.358 443.59 446.391 443.557C446.408 443.54 446.431 443.513 446.438 443.507C446.461 443.48 446.485 443.457 428.358 426.24C410.231 409.023 410.254 409 410.278 408.977C410.284 408.967 410.308 408.943 410.321 408.927C410.351 408.897 410.381 408.867 410.411 408.837C410.471 408.777 410.528 408.717 410.581 408.66C410.694 408.55 410.801 408.443 410.901 408.347C411.101 408.153 411.284 407.987 411.444 407.847C411.761 407.567 411.998 407.387 412.151 407.28C412.464 407.057 412.431 407.133 412.008 407.3C411.364 407.553 408.334 408.623 402.011 407.597C388.591 405.417 359.638 393.573 311.898 343.313L275.645 377.747ZM224.523 41.221C190.737 -6.56502 123.129 -14.627 82.2565 28.4043L118.509 62.8387C135.937 44.4903 166.618 45.9316 183.697 70.0866L224.523 41.221ZM50.0615 156.191C49.3472 142.881 55.1428 129.551 66.1892 117.922L29.9365 83.4873C12.0748 102.292 -1.50116 128.415 0.133502 158.871L50.0615 156.191ZM540.244 583.25C530.944 593.043 521.214 598.29 511.754 599.223L516.665 648.983C541.568 646.523 561.721 633.243 576.498 617.683L540.244 583.25ZM259.045 225.988C291.298 192.032 293.581 138.893 266.555 100.671L225.729 129.536C239.801 149.438 237.643 175.918 222.792 191.553L259.045 225.988ZM575.308 457.4C602.668 473.15 608.024 511.893 587.598 533.397L623.851 567.83C667.348 522.033 654.681 445.397 600.251 414.067L575.308 457.4ZM461.668 427.473C474.515 413.947 494.534 410.907 511.624 420.743L536.568 377.41C499.951 356.333 454.538 362.377 425.414 393.04L461.668 427.473Z" fill="#ACA9BB"/>
</svg>
