<svg width="598" height="598" viewBox="0 0 598 598" fill="none" xmlns="http://www.w3.org/2000/svg">
<path d="M457.5 110C437.5 110 422.5 125 422.5 145C422.5 165 437.5 180 457.5 180C477.5 180 492.5 165 492.5 145C492.5 125 477.5 110 457.5 110Z" fill="#ACA9BB"/>
<path d="M300 155C217.5 155 152.5 222.5 152.5 302.5C152.5 382.5 220 450 300 450C380 450 447.5 382.5 447.5 302.5C447.5 222.5 382.5 155 300 155ZM300 397.5C247.5 397.5 205 355 205 302.5C205 250 247.5 207.5 300 207.5C352.5 207.5 395 250 395 302.5C395 355 352.5 397.5 300 397.5Z" fill="#ACA9BB"/>
<path d="M420 0H182.5C80 0 0 80 0 180V417.5C0 517.5 80 597.5 180 597.5H417.5C517.5 597.5 597.5 517.5 597.5 417.5V180C600 80 520 0 420 0ZM542.5 420C542.5 487.5 487.5 545 417.5 545H180C112.5 545 55 490 55 420V182.5C55 115 110 57.5 180 57.5H417.5C485 57.5 542.5 112.5 542.5 182.5V420Z" fill="#ACA9BB"/>
</svg>
