<svg viewBox="0 0 487 674" fill="none" xmlns="http://www.w3.org/2000/svg">
<path d="M479.474 324.753C479.474 458.005 373.825 566.129 243.429 566.129C113.033 566.129 7.3833 458.005 7.3833 324.753C7.3833 191.502 113.033 83.3774 243.429 83.3774C373.825 83.3774 479.474 191.502 479.474 324.753Z" fill="#D33833"/>
<path d="M17.0916 384.526C17.0916 384.526 -0.0407241 132.871 232.007 125.637L215.827 98.606L89.9992 140.866L54.0213 182.174L22.612 242.327L4.71826 312.38L10.0483 359.208" fill="#EF3D3A"/>
<path d="M81.8138 160.092C40.5058 202.542 14.8073 260.983 14.8073 325.705C14.8073 390.427 40.5058 448.867 81.8138 491.318C123.312 533.768 180.23 559.847 243.429 559.847C306.628 559.847 363.546 533.768 405.044 491.318C446.352 448.867 472.05 390.427 472.05 325.705C472.05 260.983 446.352 202.542 405.044 160.092C363.546 117.833 306.628 91.5629 243.429 91.5629C180.42 91.5629 123.312 117.642 81.8138 160.092ZM71.3441 501.407C27.371 456.482 0.149658 394.234 0.149658 325.705C0.149658 257.176 27.371 194.928 71.3441 149.813C115.317 104.888 176.232 76.9053 243.429 76.9053C310.626 76.9053 371.541 104.888 415.514 149.813C459.487 194.738 486.708 256.985 486.708 325.705C486.708 394.234 459.487 456.482 415.514 501.407C371.541 546.522 310.626 574.314 243.429 574.314C176.232 574.314 115.317 546.522 71.3441 501.407Z" fill="#231F20"/>
<path d="M342.796 326.086L306.819 331.416L258.277 336.936L226.868 337.698L196.22 336.746L172.806 329.512L152.056 307.05L135.876 261.173L132.259 251.275L110.748 244.041L98.1847 223.292L89.2378 193.596L99.1365 167.516L122.551 159.331L141.396 168.278L150.343 188.075L161.194 186.362L164.81 181.793L161.194 161.044L160.242 134.965L165.572 98.9871L165.382 78.4283L181.752 52.1587L210.497 31.4095L260.752 9.89893L316.527 18.0844L365.069 53.1105L387.531 89.0884L401.998 115.168L405.615 179.89L394.765 235.665L374.967 285.159L356.312 311.618" fill="#F0D6B7"/>
<path d="M312.339 481.609L183.847 486.939V508.45L194.697 584.023L189.367 590.304L99.5173 559.657L93.2355 548.806L84.2886 447.154L63.1587 386.239L58.5901 371.772L130.546 322.278L153.008 313.332L172.806 337.698L189.938 352.926L209.735 359.208L218.682 361.873L229.533 408.702L237.718 418.6L258.467 411.367L244 439.349L322.047 476.279L312.339 481.609Z" fill="#335061"/>
<path d="M99.1366 167.897L122.551 159.711L141.396 168.658L150.343 188.456L161.194 186.743L163.859 175.892L158.529 155.143L163.859 105.649L159.29 78.6184L175.471 59.7728L210.497 31.9804L200.598 18.4648L151.105 42.8308L130.356 59.0114L118.744 84.1388L100.85 108.505L95.5198 137.249L99.1366 167.897Z" fill="#6D6B6D"/>
<path d="M136.066 83.3772C136.066 83.3772 149.582 50.0643 203.454 33.8837C257.325 17.7032 206.119 22.2718 206.119 22.2718L147.678 44.7342L125.216 67.1966L115.317 85.0904L136.066 83.3772Z" fill="#DCD9D8"/>
<path d="M109.035 161.615C109.035 161.615 90.1897 98.606 162.146 89.6591L159.481 78.8086L109.987 90.4205L95.5198 137.249L99.1366 167.897L109.035 161.615Z" fill="#DCD9D8"/>
<path d="M137.78 245.183L149.582 233.761C149.582 233.761 154.912 234.332 155.864 240.614C156.815 246.896 159.481 303.623 198.123 334.081C201.74 336.936 169.379 329.512 169.379 329.512L140.635 284.587" fill="#F7E4CD"/>
<path d="M303.202 228.05C303.202 228.05 305.296 200.829 312.72 202.923C320.144 205.017 320.144 212.441 320.144 212.441C320.144 212.441 302.25 223.863 303.202 228.05Z" fill="#F7E4CD"/>
<path d="M377.823 128.302C377.823 128.302 362.975 131.348 361.642 144.483C360.31 157.618 377.823 147.148 380.488 146.196" fill="#F7E4CD"/>
<path d="M269.127 129.254C269.127 129.254 249.33 131.919 249.33 144.483C249.33 157.046 271.793 156.095 278.074 150.765" fill="#F7E4CD"/>
<path d="M146.917 187.694C146.917 187.694 112.842 166.945 109.225 186.743C105.609 206.54 97.6136 220.817 114.556 241.566L102.944 237.949L92.0931 210.157L88.4763 183.126L109.225 161.615L132.64 163.328L146.155 174.179L146.917 187.694Z" fill="#F7E4CD"/>
<path d="M163.097 130.967C163.097 130.967 178.326 51.7779 255.612 36.5492C319.192 23.9855 352.695 39.2142 365.259 53.6815C365.259 53.6815 308.532 -13.7057 254.66 6.85312C200.788 27.6023 161.194 65.2934 162.145 89.4691C163.668 130.967 163.097 130.967 163.097 130.967Z" fill="#F7E4CD"/>
<path d="M371.541 62.6284C371.541 62.6284 345.462 61.6766 344.51 85.0908C344.51 85.0908 344.51 88.7077 346.223 92.3245C346.223 92.3245 366.972 68.9103 379.536 81.474" fill="#F7E4CD"/>
<path d="M257.515 94.7987C257.515 94.7987 252.947 59.0112 222.489 79.7604C202.692 93.2759 204.596 112.121 208.022 115.738C211.639 119.355 210.687 126.589 213.352 121.639C216.017 116.69 215.256 100.51 225.154 95.9409C234.863 91.3723 251.234 86.4229 257.515 94.7987Z" fill="#F7E4CD"/>
<path d="M172.996 337.698L88.4763 375.389C88.4763 375.389 123.502 514.732 105.609 557.944L93.045 553.375L92.0932 500.265L68.679 399.755L58.7803 371.962L146.917 312.57L172.996 337.698Z" fill="#49728B"/>
<path d="M181.562 414.793L193.555 429.451V483.322H179.278C179.278 483.322 177.564 445.631 177.564 441.063C177.564 436.494 179.278 420.313 179.278 420.313" fill="#49728B"/>
<path d="M181.943 491.508L141.396 493.221L153.008 501.407L181.752 505.975" fill="#49728B"/>
<path d="M320.334 482.561L353.647 481.609L361.832 564.225L327.758 568.794L320.334 482.561Z" fill="#335061"/>
<path d="M329.281 482.561L379.536 479.896C379.536 479.896 400.285 427.737 400.285 425.072C400.285 422.407 418.179 349.5 418.179 349.5L377.632 307.24L369.447 300.006L347.936 321.517V405.085L329.281 482.561Z" fill="#335061"/>
<path d="M351.743 476.279L320.334 482.561L324.903 507.689C336.515 513.019 356.312 498.742 356.312 498.742" fill="#49728B"/>
<path d="M352.695 318.852L415.704 365.68L417.417 344.17L369.827 300.197L352.695 318.852Z" fill="#49728B"/>
<path d="M213.162 659.595L194.506 584.022L185.179 528.247L183.656 486.939L267.985 482.371H320.334L315.575 576.789L323.76 649.696L322.809 663.212L254.47 668.542L213.162 659.595Z" fill="white"/>
<path d="M308.722 481.609C308.722 481.609 304.154 575.076 317.669 641.702C317.669 641.702 290.638 658.834 251.234 663.212L326.806 660.547L335.753 655.217L324.903 507.879L322.047 476.279" fill="#DCD9D8"/>
<path d="M363.165 557.182L398.191 547.283L464.626 543.666L474.525 513.018L456.631 459.908L435.882 457.243L407.138 466.19L379.726 479.706L365.069 477.041L353.647 481.609" fill="white"/>
<path d="M362.594 539.097C362.594 539.097 386.008 528.247 389.625 529.199L379.726 479.705L391.338 475.137C391.338 475.137 399.523 521.965 399.523 527.295C399.523 527.295 449.778 529.96 454.347 529.96C454.347 529.96 465.197 509.211 462.532 487.7L472.431 516.445L473.383 532.625L458.916 554.136L442.735 557.753L415.704 556.801L406.757 545.189L375.348 549.758L365.449 553.374" fill="#DCD9D8"/>
<path d="M327.187 475.327L307.39 425.072L286.641 395.376C286.641 395.376 291.209 382.812 297.491 382.812H318.24L338.038 390.046L336.324 423.359L327.187 475.327Z" fill="white"/>
<path d="M331.184 458.195C331.184 458.195 306.057 409.653 306.057 402.42C306.057 402.42 310.626 391.569 316.908 394.234C323.189 396.899 336.705 404.133 336.705 404.133V387.001L306.057 380.719L285.308 383.384L320.334 466.38L327.568 467.332" fill="#DCD9D8"/>
<path d="M221.157 339.601L196.22 336.936L172.806 329.702V337.888L184.227 350.451L220.205 366.632" fill="white"/>
<path d="M180.991 342.266C180.991 342.266 208.783 353.878 217.921 351.213L218.873 362.063L193.745 356.733L178.516 345.883L180.991 342.266Z" fill="#DCD9D8"/>
<path d="M363.165 385.859C347.936 385.478 334.04 383.574 322.047 380.148C322.809 375.199 321.286 370.44 322.618 366.823C326.045 364.348 331.565 364.348 336.705 363.777C332.327 361.683 326.045 360.731 321.095 362.064C320.905 358.637 319.382 356.543 318.43 353.878C326.997 350.833 347.175 330.845 358.596 337.317C364.117 340.553 366.401 358.447 366.782 367.394C367.162 374.627 366.02 381.861 363.165 385.859Z" fill="#D33833"/>
<path d="M363.165 385.859C347.936 385.478 334.04 383.574 322.047 380.148C322.809 375.199 321.286 370.44 322.618 366.823C326.045 364.348 331.565 364.348 336.705 363.777C332.327 361.683 326.045 360.731 321.095 362.064C320.905 358.637 319.382 356.543 318.43 353.878C326.997 350.833 347.175 330.845 358.596 337.317C364.117 340.553 366.401 358.447 366.782 367.394C367.162 374.627 366.02 381.861 363.165 385.859Z" fill="black" stroke="#D33833" stroke-width="3.83693"/>
<path d="M290.257 360.922C290.257 362.064 290.257 363.206 290.067 364.348C285.308 367.394 277.694 367.394 272.364 370.059C279.978 370.44 286.069 372.343 291.399 374.818C291.209 377.673 291.209 380.719 291.019 383.574C282.262 389.475 274.267 398.422 263.988 404.133C259.038 406.798 242.096 413.651 236.957 412.319C234.101 411.557 233.721 407.94 232.578 404.514C230.104 397.28 224.393 385.478 223.822 374.437C223.251 360.541 221.728 337.127 236.766 339.982C248.949 342.266 263.036 347.787 272.364 352.926C278.265 356.353 281.501 360.16 290.257 360.922Z" fill="#D33833"/>
<path d="M290.257 360.922C290.257 362.064 290.257 363.206 290.067 364.348C285.308 367.394 277.694 367.394 272.364 370.059C279.978 370.44 286.069 372.343 291.399 374.818C291.209 377.673 291.209 380.719 291.019 383.574C282.262 389.475 274.267 398.422 263.988 404.133C259.038 406.798 242.096 413.651 236.957 412.319C234.101 411.557 233.721 407.94 232.578 404.514C230.104 397.28 224.393 385.478 223.822 374.437C223.251 360.541 221.728 337.127 236.766 339.982C248.949 342.266 263.036 347.787 272.364 352.926C278.265 356.353 281.501 360.16 290.257 360.922Z" fill="black" stroke="#D33833" stroke-width="3.83693"/>
<path d="M298.823 377.482C297.491 369.868 295.968 367.774 296.539 361.111C316.908 347.596 320.524 384.335 298.823 377.482Z" fill="#D33833"/>
<path d="M298.823 377.482C297.491 369.868 295.968 367.774 296.539 361.111C316.908 347.596 320.524 384.335 298.823 377.482Z" fill="black" stroke="#D33833" stroke-width="3.83693"/>
<path d="M328.139 383.574C328.139 383.574 321.857 374.627 326.426 371.962C330.994 369.297 335.372 371.962 338.037 367.394C340.702 362.825 338.037 360.16 338.989 354.83C339.941 349.5 344.319 348.548 348.888 347.596C353.457 346.645 366.02 344.931 367.733 349.31L362.403 333.129L351.553 329.512L317.479 349.31L315.765 359.208V379.006" fill="#EF3D3A"/>
<path d="M233.721 413.27C232.578 399.184 231.436 385.288 230.294 371.201C228.391 350.261 235.244 353.878 253.518 353.878C256.373 353.878 270.65 357.114 271.602 359.208C276.552 369.297 263.417 367.013 277.313 374.627C288.925 380.909 309.674 370.82 304.915 356.543C302.25 353.307 291.209 355.591 287.212 353.498C280.168 349.881 273.125 346.264 266.082 342.647C257.135 338.078 236.576 331.226 227.058 337.698C202.882 354.069 228.581 395.186 237.147 412.319" fill="#EF3D3A"/>
<path d="M257.515 94.7988C232.959 89.088 220.776 105.078 213.352 121.639C206.689 120.117 209.355 110.979 211.068 106.411C215.446 94.4181 233.149 78.2375 247.617 80.5218C253.708 81.2833 262.084 86.9941 257.515 94.7988Z" fill="#231F20"/>
<path d="M376.871 122.591H378.013C383.534 134.013 388.293 146.196 395.336 156.475C390.577 167.516 359.929 177.034 360.31 157.617C366.972 154.762 378.394 157.046 384.295 153.239C380.868 143.912 376.109 135.916 376.871 122.591Z" fill="#231F20"/>
<path d="M269.889 122.972C275.219 132.68 276.932 142.77 284.356 150.003C287.783 153.239 294.255 157.237 291.019 166.374C290.257 168.468 284.737 173.227 281.501 174.179C269.889 177.605 242.668 174.94 251.805 160.283C261.513 160.663 274.458 166.564 281.691 159.521C276.171 150.765 266.272 133.252 269.889 122.972Z" fill="#231F20"/>
<path d="M372.493 220.817C354.979 232.048 335.372 244.421 306.438 241.566C300.346 236.236 297.872 224.243 303.963 216.439C307.009 221.769 305.105 231.667 313.862 233.19C330.233 236.046 349.269 223.101 361.071 218.723C368.305 206.35 360.5 201.971 353.837 193.976C340.322 177.796 322.428 157.618 322.999 133.442C328.52 129.444 328.9 139.533 329.662 141.247C336.705 157.618 354.408 178.748 367.162 192.834C370.399 196.261 375.538 199.687 376.109 201.971C377.823 208.444 371.731 216.439 372.493 220.817Z" fill="#231F20"/>
<path d="M140.635 209.015C135.114 205.779 133.782 192.073 127.31 191.692C117.982 191.121 119.695 209.586 119.695 220.436C113.413 214.726 112.271 196.832 116.84 187.695C111.51 185.03 109.225 190.55 106.18 192.454C110.177 164.851 146.726 179.699 140.635 209.015Z" fill="#231F20"/>
<path d="M383.533 232.429C375.348 248.038 363.736 265.171 339.751 265.742C339.18 260.792 338.799 252.988 339.751 249.942C358.215 248.038 369.637 238.711 383.533 232.429Z" fill="#231F20"/>
<path d="M268.556 242.518C283.785 250.513 311.958 251.464 332.898 250.893C334.04 255.462 334.04 261.173 334.04 266.693C307.199 267.835 275.6 261.173 268.556 242.518Z" fill="#231F20"/>
<path d="M265.701 257.366C276.361 284.016 312.72 280.97 343.368 280.209C342.035 283.635 339.18 287.823 335.373 289.156C325.474 293.153 298.443 296.199 284.737 288.965C276.171 284.397 270.46 273.927 265.701 267.835C263.607 264.98 252.186 257.556 265.701 257.366Z" fill="#231F20"/>
<path d="M371.16 404.133C358.787 425.453 346.794 447.345 332.136 466C338.228 447.916 340.893 417.458 341.845 394.234C354.789 388.143 365.83 395.567 371.16 404.133Z" fill="#81B0C4"/>
<path d="M437.976 480.657C424.08 483.513 414.372 497.028 400.666 496.076C408.28 485.607 421.225 481.038 437.976 480.657Z" fill="#231F20"/>
<path d="M444.068 502.358C432.646 503.5 419.321 505.404 407.899 504.452C413.42 496.076 434.359 499.122 444.068 502.358Z" fill="#231F20"/>
<path d="M448.065 521.204C435.311 521.394 419.511 521.204 407.328 520.252C414.562 512.447 439.88 517.397 448.065 521.204Z" fill="#231F20"/>
<path d="M347.175 572.601C349.078 588.591 355.36 604.772 354.599 622.285C347.555 624.569 343.558 626.663 334.04 626.663C333.469 611.815 331.375 588.972 331.946 574.695C336.514 575.076 343.367 571.459 347.175 572.601Z" fill="#DCD9D8"/>
<path d="M326.616 336.555C320.144 340.743 314.814 345.883 308.532 350.451C294.826 351.213 287.402 349.5 277.503 341.695C277.694 341.124 278.645 341.314 278.645 340.553C293.303 347.025 311.958 337.888 326.616 336.555Z" fill="#F0D6B7"/>
<path d="M250.092 436.113C254.089 418.79 269.889 409.653 284.166 400.135C298.824 418.79 307.77 442.776 317.669 466C294.255 458.956 270.46 447.725 250.092 436.113Z" fill="#81B0C4"/>
<path d="M331.946 574.885C331.375 589.162 333.279 611.815 334.04 626.853C343.558 626.853 347.555 624.759 354.599 622.475C355.36 604.962 349.078 588.781 347.175 572.791C343.368 571.459 336.515 575.076 331.946 574.885ZM184.989 494.173C191.27 551.471 200.217 599.442 216.779 650.268C253.518 661.499 297.681 662.451 330.233 652.361C324.332 623.808 326.806 588.972 323.38 558.324C320.715 535.291 322.047 512.257 318.43 488.843C279.026 480.657 223.441 486.939 184.989 494.173ZM327.758 489.224C327.377 513.78 328.9 538.146 330.804 562.702C340.322 561.37 346.604 560.418 355.36 558.324C352.505 534.719 352.886 507.879 346.984 486.939C340.322 487.13 334.421 486.939 327.758 489.224ZM375.538 485.226C370.97 484.274 365.83 485.226 361.642 485.226C363.736 505.214 368.495 527.295 370.208 548.425C376.871 548.616 380.488 545.38 386.008 544.428C386.389 525.963 384.485 500.455 375.538 485.226ZM448.065 551.471C462.152 548.045 470.908 530.912 466.911 513.209C464.246 501.407 459.677 478.944 454.537 471.33C450.921 465.809 440.832 458.385 432.646 463.525C419.511 471.901 396.478 474.376 386.96 484.465C391.719 500.455 393.242 522.156 395.145 542.334C411.516 543.286 431.504 537.765 445.21 543.666C435.692 546.712 423.509 546.712 415.323 551.281C422.176 554.517 437.786 553.946 448.065 551.471ZM317.479 466C307.58 442.776 298.633 418.791 283.975 400.135C269.698 409.653 254.089 418.791 249.901 436.113C270.46 447.725 294.255 458.956 317.479 466ZM341.845 394.234C340.893 417.458 338.228 447.916 332.136 466C346.794 447.154 358.787 425.453 371.16 404.133C365.83 395.567 354.789 388.143 341.845 394.234ZM314.243 384.526C308.722 383.955 303.963 390.998 296.73 387.952C295.016 389.856 293.493 391.76 291.78 393.663C307.77 413.08 315.194 440.492 327.568 463.144C334.23 441.253 333.469 417.458 334.992 393.663C325.854 394.044 320.715 385.097 314.243 384.526ZM296.539 361.112C295.968 367.774 297.491 369.868 298.823 377.483C320.524 384.336 316.908 347.596 296.539 361.112ZM272.364 353.117C263.036 347.977 248.949 342.456 236.766 340.172C221.728 337.317 223.251 360.731 223.822 374.627C224.393 385.668 230.104 397.28 232.578 404.704C233.721 408.13 234.101 411.747 236.957 412.509C242.096 413.651 259.229 406.988 263.988 404.323C274.267 398.803 282.262 389.856 291.019 383.764C291.209 380.909 291.209 377.863 291.399 375.008C286.069 372.343 280.168 370.63 272.364 370.249C277.503 367.584 285.308 367.584 290.067 364.538C290.067 363.396 290.067 362.254 290.257 361.112C281.501 360.16 278.265 356.353 272.364 353.117ZM182.895 336.936C175.09 344.931 204.786 355.591 214.114 356.162C214.114 351.213 216.969 346.454 216.398 342.837C205.167 340.934 190.509 342.266 182.895 336.936ZM278.836 340.553C278.836 341.314 277.884 341.124 277.694 341.695C287.783 349.5 295.207 351.213 308.722 350.452C314.814 346.073 320.334 340.743 326.806 336.555C311.958 337.888 293.303 347.025 278.836 340.553ZM366.782 367.203C366.401 358.447 364.117 340.363 358.596 337.126C347.175 330.464 326.997 350.642 318.43 353.688C319.382 356.353 320.905 358.447 321.096 361.873C326.235 360.541 332.327 361.492 336.705 363.586C331.565 364.157 326.045 364.157 322.618 366.632C321.476 370.249 322.999 375.008 322.047 379.957C334.04 383.384 347.936 385.097 363.165 385.668C366.02 381.861 367.162 374.627 366.782 367.203ZM169.76 344.55C167.285 342.837 150.724 321.327 148.44 322.278C118.553 334.081 90.5703 354.449 65.6333 373.866C89.4282 425.072 99.1365 487.701 100.85 548.045C128.071 560.799 152.056 579.263 189.176 581.167C184.798 550.9 180.991 523.679 178.516 495.125C169.189 491.127 155.864 495.315 147.107 493.983C147.107 483.513 160.432 489.414 161.574 482.371C162.336 477.041 154.15 476.66 156.815 468.284C163.668 470.759 167.285 476.279 174.519 478.373C181.181 463.906 174.519 438.207 175.471 426.024C175.661 423.74 176.613 413.461 181.752 415.174C186.321 416.697 181.562 442.776 181.943 454.197C182.324 464.858 180.61 474.947 184.989 481.609C220.776 476.66 257.135 473.614 295.968 472.472C287.402 468.855 277.313 465.429 266.272 459.147C260.181 455.72 241.335 448.677 239.622 442.966C236.766 433.829 246.855 429.07 248.569 421.265C230.484 431.164 227.058 411.747 222.68 398.232C218.873 385.858 216.588 376.531 215.636 369.488C199.837 361.492 183.085 354.068 169.76 344.55ZM350.982 324.753C375.919 312.76 380.488 369.868 370.589 388.333C372.112 393.854 377.252 395.947 379.345 400.897C365.449 425.834 350.03 449.058 335.753 473.614C346.223 466.952 361.452 472.472 373.825 467.523C378.394 465.809 381.63 455.34 385.056 446.964C394.574 424.121 404.473 395.186 408.851 373.485C409.803 368.536 412.658 357.685 411.897 353.307C410.755 345.312 400.095 339.411 394.574 334.652C384.485 325.515 378.203 317.71 367.543 309.144C363.546 315.425 354.408 319.613 350.982 324.753ZM112.842 103.746C101.04 116.881 103.515 141.247 104.847 158.76C126.358 145.244 154.721 159.902 154.531 182.745C164.81 182.555 158.338 169.991 156.435 161.805C150.343 135.346 166.714 106.792 157.196 82.616C138.731 84.1388 123.693 91.5629 112.842 103.746ZM197.743 27.7925C170.902 35.4069 136.447 55.0139 125.406 79.1895C133.972 77.857 139.873 73.6691 148.249 73.098C151.485 72.9076 155.673 74.4305 159.29 73.4787C166.524 71.5751 172.806 55.2042 178.326 49.1127C183.656 43.2116 190.128 40.5466 194.507 35.2165C197.362 33.884 201.55 33.884 201.74 29.6961C200.598 28.3636 199.266 27.4118 197.743 27.7925ZM337.657 35.0261C309.674 19.2263 262.465 7.42403 232.769 22.2721C208.784 34.2647 176.422 54.0621 165.382 78.9991C175.661 103.175 162.336 125.256 161.384 149.813C161.003 162.948 167.476 174.179 168.047 188.456C164.43 194.357 153.77 194.928 146.346 194.547C143.871 181.984 139.493 167.897 126.548 166.374C108.274 164.28 94.7582 179.509 93.9968 195.309C93.045 213.964 108.274 244.802 129.975 242.708C138.351 241.947 140.444 233.571 149.582 233.571C154.531 243.47 141.967 246.515 140.635 253.559C140.254 255.462 141.587 262.506 142.538 265.932C146.536 282.113 155.293 303.242 163.859 315.616C174.9 331.416 196.41 333.7 219.634 335.223C223.822 326.276 239.051 327.037 248.949 329.322C236.957 324.563 225.916 313.141 216.779 303.052C206.309 291.44 195.649 279.067 195.078 263.838C215.065 291.44 231.436 315.616 267.605 327.799C295.016 336.936 326.997 323.611 348.127 308.763C356.883 302.671 362.023 292.773 368.305 284.016C391.528 250.513 402.379 202.923 400.095 156.666C399.143 137.63 399.143 118.594 392.671 105.84C386.008 92.5147 363.355 80.3317 350.03 92.5147C347.555 79.3799 361.071 71.3848 376.871 76.1438C365.64 61.4861 353.837 44.1634 337.657 35.0261ZM389.815 465.429C411.707 454.578 452.443 436.304 465.959 465.429C471.099 476.279 477 494.363 479.474 505.594C483.091 521.204 475.477 554.326 459.296 559.466C445.019 564.035 428.458 563.844 411.326 560.418C409.232 558.705 407.138 555.849 405.425 552.804C393.242 552.423 381.63 553.375 372.112 558.514C373.064 567.652 366.972 568.984 361.071 570.888C356.883 587.83 369.637 609.911 366.591 625.14C364.497 636.181 350.982 637.894 341.083 639.798C340.703 645.889 341.464 651.029 342.225 656.169C339.941 664.544 329.852 669.303 320.144 670.446C288.354 674.253 240.193 675.966 209.735 664.925C201.169 643.986 194.507 618.668 187.463 594.873C157.767 598.109 133.592 582.119 110.939 571.459C103.134 567.842 92.2836 565.748 89.2378 559.466C86.3824 553.375 87.5246 541.763 86.7632 530.912C85.0499 502.929 83.3367 475.898 76.103 447.344C72.8669 434.4 66.9658 423.169 62.9682 410.795C59.1611 399.374 52.6888 385.097 50.9756 373.675C48.5009 356.733 64.4911 355.782 74.5802 348.358C90.38 336.936 102.753 330.654 119.886 320.375C125.025 317.329 140.254 309.715 141.967 306.098C145.394 299.055 136.066 289.156 133.592 283.635C129.594 274.879 127.5 267.455 126.929 258.889C112.652 256.604 101.611 248.038 95.139 238.52C84.2885 222.53 76.6741 193.024 86.1921 170.752C86.9535 169.039 90.5703 165.422 91.1414 162.757C92.2836 157.427 89.0475 150.384 88.8571 144.673C87.9053 115.548 93.8065 90.4207 113.413 81.6642C121.409 49.8742 149.962 39.4044 176.803 23.6046C186.892 17.7034 197.933 13.8962 209.355 9.70834C250.282 -5.33005 313.291 -2.47465 347.365 23.2239C361.832 34.0743 384.866 57.1078 393.051 73.8594C414.943 117.832 413.229 191.502 398.001 245.183C395.907 252.417 393.051 262.886 388.863 271.643C386.008 277.734 377.061 289.727 378.013 295.057C379.155 300.577 398.572 315.235 402.76 319.233C410.184 326.466 424.461 335.984 425.603 345.122C426.935 354.83 421.415 368.155 418.56 377.483C409.422 408.702 400.285 437.446 389.815 465.429Z" fill="#231F20"/>
<path d="M244.19 249.18C245.333 247.657 251.805 245.183 260.942 249.561C260.942 249.561 250.092 251.274 251.043 269.358L246.475 268.407C246.665 268.597 241.906 252.226 244.19 249.18Z" fill="#F7E4CD"/>
<path d="M322.999 403.752C322.999 406.417 320.715 408.701 318.05 408.701C315.385 408.701 313.1 406.417 313.1 403.752C313.1 401.087 315.385 398.803 318.05 398.803C320.905 398.803 322.999 401.087 322.999 403.752Z" fill="#1D1919"/>
<path d="M327.948 426.786C327.948 429.451 325.664 431.735 322.999 431.735C320.334 431.735 318.05 429.451 318.05 426.786C318.05 424.121 320.334 421.836 322.999 421.836C325.855 421.836 327.948 423.93 327.948 426.786Z" fill="#1D1919"/>
</svg>
