<svg viewBox="0 0 126 130" fill="none" xmlns="http://www.w3.org/2000/svg">
<mask id="mask0_33_86" style="mask-type:luminance" maskUnits="userSpaceOnUse" x="0" y="0" width="126" height="130">
<path d="M0.669434 129.636H125.073V0.0250541H0.669434V129.636Z" fill="white"/>
</mask>
<g mask="url(#mask0_33_86)">
<path d="M10.0295 66.9222L16.0633 66.4907L15.9397 64.6771L17.1676 64.5895L17.4974 69.4389L16.2695 69.5264L16.1458 67.7188L10.1149 68.1504L10.0295 66.9222ZM10.3564 71.0654L17.5269 69.7739L17.7359 70.9839L14.9149 71.4939L15.3242 73.8809L18.1453 73.3709L18.3573 74.587L11.1868 75.8846L10.9778 74.6655L14.111 74.0981L13.7016 71.7142L10.5655 72.2815L10.3564 71.0654ZM11.6904 77.5171L18.7224 75.5858L19.8679 79.9705L18.6783 80.2994L17.8449 77.1037L16.2871 77.5292L17.0616 80.5016L15.8778 80.8245L15.1004 77.8551L13.1863 78.3802L14.0521 81.6845L12.8653 82.0104L11.6904 77.5171ZM14.3377 85.5078L20.8809 82.2367L21.3933 83.32L18.0952 87.7499L22.4652 85.5682L22.957 86.6002L16.4167 89.8713L15.8837 88.7548L19.0964 84.4094L14.8295 86.5399L14.3377 85.5078ZM17.1971 91.3017L23.3693 87.3516L25.7192 91.1991L24.6708 91.869L22.9629 89.0626L21.5936 89.9408L23.1808 92.545L22.1442 93.2119L20.5541 90.6046L18.8726 91.6819L20.6424 94.5819L19.6029 95.2488L17.1971 91.3017ZM21.2903 97.4154L25.8517 91.4224L26.6615 92.376L23.4753 96.4287L27.966 93.915L28.9083 95.0225L25.7574 99.2532L30.1981 96.5434L30.9932 97.4818L24.5472 101.254L23.705 100.261L27.0296 95.6833L22.1472 98.4264L21.2903 97.4154ZM28.0573 104.495L32.8307 98.8639L33.7377 99.6726L28.9613 105.304L28.0573 104.495ZM30.0803 106.36L34.3591 100.327L35.3073 101.034L34.4268 106.532L37.2832 102.503L38.1931 103.179L33.9144 109.214L32.9338 108.484L33.7789 103.101L30.9873 107.036L30.0803 106.36ZM39.0913 103.662L40.9759 104.821C41.453 105.116 41.7798 105.394 41.9595 105.651C42.1391 105.91 42.2539 106.23 42.304 106.616C42.3599 106.999 42.3217 107.434 42.198 107.92C42.0714 108.406 41.8299 108.952 41.4706 109.564C41.1438 110.12 40.8022 110.56 40.44 110.895C40.0807 111.227 39.7332 111.457 39.4064 111.58C39.0795 111.704 38.7497 111.743 38.414 111.701C38.0753 111.656 37.7013 111.508 37.2832 111.251L35.3426 110.056L39.0913 103.662ZM39.4859 105.379L37.0034 109.613L37.7779 110.09C38.1107 110.292 38.3698 110.412 38.5553 110.437L39.0913 110.373L39.6891 109.905C39.9129 109.667 40.1602 109.317 40.4282 108.858C40.705 108.388 40.8935 107.992 40.9877 107.681C41.0849 107.368 41.1143 107.09 41.0701 106.852L40.7609 106.239C40.6373 106.112 40.3693 105.922 39.9541 105.666L39.4859 105.379ZM40.8964 113.113L43.9737 106.351L45.0632 106.873L41.986 113.632L40.8964 113.113ZM48.4026 116.01L47.1628 115.573L47.2099 113.795L44.9543 112.999L43.9531 114.438L42.7398 114.012L47.3071 107.733L48.5145 108.158L48.4026 116.01ZM47.2423 112.48L47.3454 109.589L45.7022 111.936L47.2423 112.48ZM56.3917 117.685L55.1048 117.428L54.9105 115.66L52.5694 115.195L51.7714 116.762L50.514 116.514L54.1831 109.646L55.4376 109.893L56.3917 117.685ZM54.7632 114.353L54.4746 111.475L53.1642 114.034L54.7632 114.353ZM57.2869 115.165L58.4707 115.126C58.5237 116.089 58.9153 116.602 59.6456 116.668C60.0078 116.701 60.3023 116.629 60.5261 116.454C60.7528 116.279 60.8765 116.046 60.9001 115.76L60.8265 115.319L60.5202 114.996C60.3789 114.906 60.0314 114.749 59.4748 114.516C58.9772 114.311 58.6179 114.106 58.397 113.901C58.1762 113.693 58.0054 113.433 57.8935 113.116C57.7786 112.799 57.7374 112.47 57.7669 112.123C57.8022 111.716 57.92 111.36 58.1291 111.049C58.3352 110.744 58.6061 110.521 58.9359 110.382C59.2687 110.246 59.6633 110.198 60.1286 110.24C60.8294 110.304 61.3595 110.545 61.7187 110.971C62.078 111.393 62.237 111.967 62.1987 112.694L60.9914 112.652C60.9708 112.247 60.8824 111.957 60.7205 111.782C60.5585 111.61 60.317 111.508 59.9931 111.481C59.6721 111.451 59.4159 111.499 59.2304 111.619L58.9212 112.114L59.1156 112.645C59.2628 112.799 59.6162 112.983 60.1698 113.201C60.7587 113.433 61.1798 113.662 61.4301 113.883C61.6834 114.106 61.866 114.378 61.9808 114.704C62.0957 115.029 62.1339 115.416 62.0956 115.859C62.0426 116.508 61.8012 117.03 61.3771 117.434C60.9501 117.839 60.3259 118.005 59.5013 117.932C58.0466 117.8 57.3045 116.879 57.2869 115.165ZM62.9084 115.536L64.0775 115.349C64.2424 116.297 64.6929 116.762 65.4291 116.734C65.7913 116.722 66.074 116.614 66.2743 116.408C66.4774 116.206 66.5746 115.962 66.5628 115.675L66.4421 115.247L66.0976 114.966C65.9444 114.894 65.5822 114.779 65.0051 114.619C64.4838 114.477 64.104 114.32 63.8596 114.142C63.6151 113.964 63.4149 113.726 63.2647 113.427C63.1145 113.128 63.035 112.805 63.0203 112.455C63.0085 112.051 63.0851 111.68 63.2529 111.348C63.4237 111.016 63.6652 110.759 63.9744 110.584C64.2865 110.406 64.6752 110.31 65.1435 110.292C65.8473 110.268 66.3979 110.443 66.8072 110.82C67.2136 111.194 67.4404 111.746 67.4875 112.47L66.286 112.579C66.2183 112.181 66.0946 111.903 65.912 111.752C65.7324 111.598 65.4792 111.529 65.1552 111.541C64.8313 111.55 64.584 111.629 64.4161 111.773L64.1688 112.304L64.4249 112.805C64.5899 112.941 64.9579 113.08 65.5381 113.228C66.1476 113.385 66.5923 113.56 66.8691 113.747C67.143 113.934 67.3609 114.184 67.514 114.492C67.6642 114.8 67.7496 115.177 67.7643 115.627C67.7879 116.273 67.6112 116.825 67.2372 117.278C66.8632 117.733 66.2625 117.975 65.435 118.005C63.9744 118.056 63.1293 117.235 62.9084 115.536ZM67.7937 110.325L68.9716 110.09L69.7255 114.055C69.8433 114.673 69.9316 115.069 69.9964 115.25C70.1083 115.564 70.2821 115.787 70.5117 115.926C70.7414 116.061 71.0182 116.098 71.3392 116.034C71.6101 115.98 71.8222 115.874 71.9723 115.714L72.2256 115.126C72.2462 114.891 72.1873 114.411 72.0518 113.681L71.2803 109.628L72.4671 109.392L73.1974 113.24C73.3829 114.221 73.4653 114.942 73.4477 115.398C73.427 115.859 73.2651 116.258 72.9559 116.602C72.6467 116.946 72.1991 117.175 71.6131 117.29C71.0035 117.413 70.5029 117.395 70.1171 117.238C69.7343 117.084 69.4251 116.816 69.1925 116.439C68.9599 116.064 68.742 115.325 68.5329 114.23L67.7937 110.325ZM75.4471 116.445L73.4418 109.275L75.88 108.557C76.5043 108.373 76.9696 108.309 77.2729 108.357C77.5762 108.409 77.8589 108.566 78.1151 108.834C78.3801 109.103 78.5686 109.459 78.6952 109.899C78.8513 110.461 78.8483 110.953 78.6805 111.372C78.5126 111.791 78.2005 112.117 77.7411 112.344C78.0415 112.455 78.3035 112.594 78.5244 112.763C78.7482 112.932 79.078 113.258 79.5168 113.735L80.6034 114.93L79.2253 115.334L77.9443 114.022C77.4879 113.548 77.1845 113.252 77.0344 113.143L76.6074 112.95C76.4719 112.932 76.2717 112.962 76.0037 113.041L75.7652 113.11L76.6015 116.107L75.4471 116.445ZM75.4442 111.967L76.3041 111.713C76.8282 111.559 77.1551 111.438 77.2876 111.348L77.5556 110.962L77.5291 110.349L77.2405 109.839L76.7988 109.658C76.681 109.655 76.363 109.73 75.8417 109.881L74.9348 110.147L75.4442 111.967ZM86.4517 112.253L85.2649 112.821L84.0929 111.508L81.9315 112.54L82.1847 114.29L81.0245 114.845L80.0527 107.078L81.21 106.526L86.4517 112.253ZM83.2242 110.539L81.3366 108.385L81.7489 111.245L83.2242 110.539ZM87.3115 111.81L83.5629 105.415L84.567 104.794L89.1638 107.775L86.6607 103.505L87.6237 102.914L91.3723 109.308L90.3329 109.948L85.8274 107.048L88.2745 111.218L87.3115 111.81ZM94.0903 103.918L95.283 103.523C95.654 104.293 95.7924 104.96 95.7011 105.533C95.6069 106.103 95.3183 106.589 94.8383 106.99C94.2317 107.491 93.5544 107.657 92.8035 107.494C91.9348 107.304 91.1309 106.737 90.3917 105.804C89.6084 104.812 89.2138 103.861 89.2109 102.941C89.205 102.141 89.5201 101.477 90.1591 100.946C90.6774 100.515 91.2575 100.337 91.8936 100.409C92.3471 100.463 92.8359 100.696 93.3512 101.106L92.6445 102.153C92.3382 101.888 92.032 101.743 91.7198 101.722C91.4136 101.7 91.1368 101.791 90.8982 101.99C90.5567 102.274 90.3976 102.657 90.4241 103.143C90.4506 103.626 90.7392 104.22 91.2958 104.926C91.873 105.657 92.3912 106.088 92.8447 106.221C93.3012 106.357 93.6958 106.281 94.0315 106.004C94.2788 105.798 94.4143 105.521 94.4408 105.177C94.4643 104.83 94.3495 104.41 94.0903 103.918ZM97.8155 104.407L92.7593 99.042L95.9455 95.8855L96.8025 96.7968L94.4791 99.0933L95.601 100.282L97.7566 98.1457L98.6105 99.051L96.452 101.184L97.8302 102.648L100.23 100.27L101.081 101.175L97.8155 104.407ZM103.681 93.6374L104.753 92.9795C105.283 93.6404 105.566 94.259 105.604 94.8384C105.637 95.4178 105.463 95.9579 105.083 96.4558C104.603 97.0865 103.979 97.4064 103.21 97.4185C102.321 97.4305 101.414 97.0684 100.489 96.3261C99.5116 95.5415 98.9168 94.7026 98.7107 93.8094C98.5281 93.0308 98.69 92.3126 99.1965 91.6487C99.6088 91.1086 100.133 90.8008 100.769 90.7253C101.225 90.671 101.747 90.7857 102.344 91.0663L101.882 92.2492C101.526 92.0622 101.196 91.9927 100.89 92.044C100.584 92.0923 100.336 92.2432 100.148 92.4937C99.8768 92.8498 99.8061 93.2602 99.9386 93.7249C100.068 94.1926 100.483 94.7056 101.181 95.2609C101.903 95.8402 102.501 96.142 102.972 96.1692C103.443 96.1933 103.814 96.0304 104.082 95.6803C104.276 95.4238 104.35 95.1251 104.297 94.781C104.244 94.437 104.041 94.0568 103.681 93.6374ZM104.058 91.522C103.307 91.0784 102.754 90.5986 102.397 90.0826C102.038 89.5696 101.844 89.0566 101.811 88.5496C101.782 88.0427 101.915 87.5266 102.206 87.0016C102.636 86.2441 103.263 85.7945 104.1 85.6497C104.933 85.5078 105.872 85.7432 106.915 86.3618C107.969 86.9835 108.652 87.7258 108.958 88.5828C109.235 89.3372 109.159 90.0916 108.729 90.8521C108.299 91.6216 107.695 92.0712 106.927 92.21C106.049 92.3639 105.092 92.1346 104.058 91.522ZM104.638 90.3964C105.36 90.8249 105.984 91.006 106.505 90.9396C107.027 90.8702 107.407 90.6288 107.642 90.2093C107.878 89.7899 107.892 89.3372 107.689 88.8484C107.486 88.3565 107.012 87.8948 106.264 87.4542C105.534 87.0197 104.918 86.8356 104.415 86.896C103.917 86.9563 103.543 87.2068 103.299 87.6413C103.054 88.0759 103.031 88.5345 103.228 89.0143C103.428 89.5002 103.896 89.9589 104.638 90.3964ZM110.51 86.9774L109.235 86.398L109.703 85.3238L110.978 85.9062L110.51 86.9774ZM112.501 82.2277L105.634 79.9433L106.005 78.7725L111.706 80.6675L112.63 77.7465L113.8 78.1357L112.501 82.2277ZM114.218 76.2165L108.325 74.8224L107.928 76.5907L106.726 76.307L107.792 71.5724L108.994 71.856L108.596 73.6213L114.489 75.0155L114.218 76.2165ZM107.875 71.3521L108.104 69.11C108.163 68.5457 108.269 68.1232 108.422 67.8486C108.573 67.571 108.811 67.3296 109.129 67.1183C109.444 66.9071 109.848 66.7562 110.328 66.6687C110.811 66.5812 111.397 66.5721 112.092 66.6476C112.719 66.717 113.252 66.8467 113.702 67.0429C114.15 67.236 114.497 67.4593 114.745 67.7128C114.992 67.9633 115.166 68.256 115.272 68.5849C115.375 68.9168 115.401 69.3272 115.351 69.8252L115.113 72.1306L107.875 71.3521ZM109.226 70.2597L114.02 70.7757L114.115 69.8553C114.156 69.46 114.15 69.1703 114.094 68.9863L113.811 68.5155C113.676 68.3857 113.455 68.2681 113.146 68.1594C112.837 68.0508 112.424 67.9693 111.909 67.915C111.373 67.8546 110.943 67.8486 110.625 67.8908C110.31 67.9331 110.054 68.0236 109.859 68.1654L109.45 68.7116C109.388 68.8806 109.335 69.2096 109.285 69.7014L109.226 70.2597ZM115.631 65.5612L114.238 65.5371L114.256 64.3632L115.652 64.3874L115.631 65.5612Z" fill="#2E3192"/>
<path d="M14.4286 50.4425L14.2696 51.1003L18.2892 52.1293L17.98 53.3998L13.9604 52.3708L13.7101 53.3968L12.812 53.1674L13.4127 50.699L13.1329 51.7069L12.812 51.7189L12.3585 51.6495C11.8225 51.4926 11.4574 51.1878 11.263 50.7322C11.0687 50.2795 11.0628 49.7303 11.2424 49.0845C11.4574 48.3181 11.8608 47.7085 12.4557 47.2528C12.8591 46.936 13.3597 46.7036 13.9545 46.5558L14.6996 46.4351L14.676 46.5165L15.4976 44.0783L16.3722 44.3861L15.9835 45.5388L17.4912 46.0729L16.7638 48.2366L16.6814 48.4871C16.6254 48.8854 16.7609 49.1419 17.0819 49.2566C17.3999 49.3652 17.6738 49.326 17.9093 49.1358C18.0919 48.988 18.2421 48.7496 18.351 48.4176C18.5071 47.962 18.5366 47.615 18.4453 47.3796L18.1155 47.0507L18.0536 47.0295L17.9947 47.0084L18.3422 45.9734L18.7574 46.0941L19.3699 46.1876L19.9795 46.2057L20.5714 46.1605L20.3476 47.3464L19.1608 47.2468L19.2197 47.4671C19.2993 47.8684 19.258 48.312 19.0961 48.7949C18.8811 49.4376 18.5778 49.9235 18.1891 50.2584C17.7326 50.6567 17.2026 50.7473 16.596 50.533C16.0689 50.3489 15.7979 49.9566 15.7862 49.3561C15.7803 49.2384 15.8244 48.9578 15.9216 48.5142L16.4458 46.9541L15.6065 46.6584L14.4198 50.4636L13.5217 50.2162L14.2755 47.7115C13.9162 47.627 13.501 47.7145 13.0299 47.971C12.5911 48.2275 12.2907 48.6379 12.1317 49.2022L12.0463 49.7001L12.1523 50.0834C12.2613 50.3157 12.4586 50.4757 12.7413 50.5572L13.1153 50.6296L13.4451 50.5722L13.5334 50.2131L14.4286 50.4425ZM21.4695 38.8276L20.8806 38.7823L20.6362 38.9573L20.3505 39.4583L20.3034 39.6484C20.271 39.9683 20.3829 40.2036 20.6362 40.3545L21.2251 40.4269L21.7022 39.9954L21.8877 39.3798L21.4695 38.8276ZM17.927 40.5959L17.126 40.1222L19.4965 35.9186L19.4583 35.8884L19.7174 35.5202L19.8352 35.315L19.8558 35.3271L21.9083 32.4332L21.8906 32.4211L22.1292 32.1194L22.4148 31.715L22.4384 31.7301L23.7605 30.0553L24.4791 30.6528L24.0639 31.1809L27.4592 33.9933L26.4933 34.8926L23.2599 32.1978L22.8624 32.6988L22.0173 33.8907L22.3265 33.8726L23.0155 34.1382C23.3718 34.4037 23.525 34.7538 23.4749 35.1943C23.4337 35.4539 23.3159 35.7254 23.1186 36.0031L23.0626 36.0845L23.0302 36.1087L23.4867 36.1057C23.8459 36.0393 24.1316 35.8552 24.3495 35.5504C24.5792 35.2245 24.6911 34.8262 24.6646 34.3554C24.6292 33.7217 24.5115 33.2148 24.3495 33.0941L25.4832 34.0446C25.5215 34.283 25.5038 34.627 25.4096 35.0465L25.2241 35.6168L24.9326 36.1389C24.3701 36.9325 23.6604 37.2795 22.8006 37.18C22.5414 37.1498 22.2146 37.0411 21.82 36.854L21.3046 37.7714L21.5461 37.7533L22.0585 37.9102C22.5208 38.1818 22.7564 38.5469 22.7741 39.0026C22.7682 39.3587 22.6121 39.8083 22.3058 40.3545C21.9819 40.9279 21.6344 41.302 21.2634 41.4801C20.8482 41.6793 20.4065 41.64 19.9383 41.3654C19.4759 41.0908 19.2757 40.6955 19.3316 40.1795C19.3523 40.0739 19.4347 39.8415 19.579 39.4824L21.4018 36.2445L21.8818 36.5281L22.082 36.2716C22.3029 35.9608 22.4089 35.7073 22.3971 35.5112L22.1409 35.0404L21.5461 34.8654L21.2722 34.9409L20.4948 36.0363L17.927 40.5959ZM30.6336 34.452L29.918 35.2969C29.5234 34.9469 29.064 34.7296 28.5458 34.6512C28.0245 34.5697 27.6064 34.7176 27.2913 35.0917L26.9703 35.7073L27.15 36.2837L27.5092 36.3954L27.842 36.1811L28.0599 35.825L28.1482 35.6047L28.9227 35.7798L28.7283 36.2053L28.4515 36.5915C28.0658 37.0472 27.6712 37.3248 27.2736 37.4274C26.9409 37.4998 26.6523 37.4244 26.4049 37.2041C26.0221 36.8631 25.8837 36.4467 25.9897 35.9518C26.081 35.5414 26.3313 35.0948 26.7465 34.6059C27.1853 34.0869 27.7448 33.8062 28.428 33.77C28.8285 33.7459 29.3379 33.8575 29.9592 34.0989L30.6336 34.452ZM32.0323 23.3109L31.0459 24.1588L31.9911 25.3146L29.9651 27.0527L29.8827 27.1252L29.8945 27.5718L30.2508 27.6714L30.4422 27.5748L32.212 26.0539C32.4122 25.8819 32.6684 25.8004 32.9806 25.8095C33.2927 25.8155 33.5401 25.9332 33.7256 26.1595C34.0348 26.5367 34.0701 26.9803 33.8345 27.4873C33.6372 27.8735 33.3575 28.2206 32.9923 28.5344L32.6625 28.7788L33.0247 28.7124L33.7491 28.6974L34.2174 28.8543L34.6826 29.1319L33.6225 30.0462C33.3516 29.8471 33.0954 29.7053 32.8569 29.6238C32.3121 29.4005 31.8851 29.4216 31.5759 29.6841C31.146 30.0553 30.6866 30.2756 30.2037 30.339C30.0918 30.3571 29.8974 30.348 29.6235 30.3118L30.2832 28.9659L31.0223 29.1047C31.3668 29.0263 31.7231 28.8301 32.0912 28.5133C32.3916 28.2538 32.6095 28.0335 32.7391 27.8554C32.9629 27.5265 32.9658 27.2308 32.7479 26.9652L32.4211 26.8385L32.0559 27.0014L30.6454 28.2145C30.3568 28.462 30.0446 28.6189 29.7089 28.6823C29.3703 28.7456 29.0935 28.6461 28.8756 28.3805C28.5988 28.0425 28.6076 27.6563 28.9021 27.2217L29.0847 27.0135L29.438 26.6605L30.7072 25.5681L30.1713 24.9102L27.1882 27.4752L26.5934 26.751L31.4375 22.5836L32.0323 23.3109ZM30.5511 21.2347L30.7249 21.8111L30.4716 22.3362L29.8945 22.5021L29.3703 22.1823L29.2054 21.5878L29.4792 21.0386L30.0299 20.9118L30.5511 21.2347ZM34.6944 21.2046L34.1496 21.5938L36.526 25.0702L35.4806 25.8246L33.1042 22.3452L32.2591 22.9518L31.729 22.1762L32.8745 21.3524L32.6478 21.1774L32.3357 20.8304C32.0176 20.3626 31.9204 19.8919 32.05 19.4121C32.1766 18.9353 32.2768 18.3921 32.8127 18.0089C33.4517 17.5502 33.7521 16.9738 36.3346 16.3009C36.8293 16.1741 38.9967 15.8301 39.8683 15.9478L41.6676 16.1923L40.4543 16.8531C39.674 16.7656 37.489 16.7928 36.3729 17.1066C35.3216 17.3993 33.3516 18.4283 33.2309 19.0982L33.1366 19.4815L33.3045 20.2299L33.5548 20.5286L33.808 20.6825L34.1643 20.429L34.6944 21.2046ZM38.7905 21.3313L38.3017 20.9903L38.0043 21.0175L37.5155 21.3072L37.38 21.446L37.3241 22.2306L37.7982 22.5927L38.4195 22.4629L38.8818 22.0254L38.7905 21.3313ZM34.6738 21.1774L34.1025 20.4351L38.2016 17.8037L38.5167 17.6256L44.2589 15.0033L44.6359 15.8724L43.4698 16.4035L43.9939 17.6136L42.0092 18.5189L41.8501 18.5913L41.4703 18.8417L41.4114 19.2159L41.6941 19.4L42.1858 19.234L43.6788 18.552C44.1117 18.3559 44.4474 18.2624 44.6859 18.2774C45.0481 18.2835 45.3191 18.4917 45.4957 18.9021C45.7019 19.3759 45.5694 19.8436 45.0982 20.3053C44.789 20.589 44.2707 20.8968 43.5375 21.2317C42.4538 21.7266 41.5763 21.9077 40.9108 21.7779L40.4691 21.624L41.0668 20.6523L41.9885 20.9149C42.4568 20.9209 42.922 20.8153 43.3844 20.604C43.723 20.4501 43.9939 20.2751 44.203 20.0729L44.3767 19.4543L44.1235 19.2582L43.7583 19.2974L42.1328 20.0397C41.7294 20.2238 41.3701 20.3023 41.0639 20.2721C40.6929 20.2359 40.4219 20.0397 40.2482 19.6897L39.1616 20.3325L39.3795 20.4441L39.7446 20.8394C40.0126 21.3132 40.0421 21.7507 39.833 22.1521C39.6563 22.4599 39.3 22.7677 38.7699 23.0845C38.2075 23.4135 37.7245 23.5613 37.3152 23.5221C36.8588 23.4829 36.4936 23.2234 36.2227 22.7436C35.9577 22.2728 35.9783 21.8262 36.2787 21.4067C36.3493 21.3283 36.5319 21.1683 36.8323 20.93L39.992 19.062L40.1304 19.3034L40.1922 18.8991C40.2894 18.6788 40.581 18.4585 41.0668 18.2382L42.6923 17.4959L42.4273 16.8803L39.512 18.208L38.7582 18.6878L34.6738 21.1774ZM47.7072 14.8675L47.9693 15.0395L48.3757 15.6702C48.5112 16.0987 48.4317 16.4729 48.1372 16.7988C47.9575 16.9889 47.7072 17.1338 47.3863 17.2394L47.295 17.2726L47.2538 17.2696L47.6248 17.5442C47.9517 17.7071 48.2903 17.7313 48.6407 17.6136C49.0177 17.4898 49.3298 17.2303 49.583 16.838C49.9129 16.3009 50.0454 15.9327 49.9835 15.7336L50.1396 16.2285L49.6096 14.2006L49.5536 14.2157L49.5654 14.2489L47.7072 14.8675ZM50.384 17.1549C50.2721 17.3571 50.0719 17.5864 49.7892 17.8459L49.3121 18.196L48.7762 18.4434C47.8663 18.7482 47.0918 18.6003 46.4528 18.0028C46.2319 17.7946 45.9963 17.4446 45.746 16.9557L45.9375 16.9467L46.3939 16.835C46.7502 16.7143 46.9828 16.5725 47.083 16.4065L47.1477 15.8724L46.7679 15.3715L46.5058 15.2689L44.6683 15.9086L44.2413 15.0395L46.3497 14.2942L48.3728 13.5579L50.9288 12.8547L50.9229 12.8336L53.8294 12.1999L54.0208 13.1263L53.3729 13.2682L54.2358 17.4204L52.9842 17.692L52.1244 13.5397L51.4824 13.6816V13.6846L50.8434 13.8596L51.9153 17.9606L50.6814 18.2986L50.384 17.1549ZM63.2084 12.4926L62.7166 12.5017L62.7549 14.6442L62.7608 14.9279L62.643 15.293L62.5105 15.5284L62.3309 15.7788L62.1041 16.0565L61.0617 15.5163L61.2472 15.3715L61.4474 15.0938L61.5417 14.8735L61.5387 14.7015L61.5034 12.5228L59.7572 12.553L59.8102 15.643L59.8161 15.8513C59.8219 16.2315 59.8897 16.5725 60.0163 16.8742C60.2195 17.3178 60.564 17.5381 61.0528 17.5291C61.3208 17.523 61.5711 17.3933 61.8038 17.1398L62.0894 16.7324L63.0141 17.6377L62.5282 18.036C62.0982 18.2925 61.5859 18.4283 60.9881 18.4374C59.9898 18.4585 59.2801 18.0028 58.8531 17.0764C58.7412 16.7928 58.644 16.322 58.5586 15.6642L58.5056 12.5771L57.7812 12.5892L57.7665 11.6416L63.1937 11.5451L63.2084 12.4926ZM68.5855 13.4884C68.5413 14.1523 68.2321 14.6291 67.6638 14.9248C67.5283 14.9942 67.2427 15.0606 66.8128 15.124L65.6231 15.0395L65.8204 15.5827C65.9411 15.7577 66.1355 15.8573 66.4035 15.8784L68.3293 16.0142L68.2645 16.9346L66.2562 16.7897C65.9117 16.7656 65.6172 16.6992 65.3698 16.5906L64.7161 16.0957C64.4511 15.7788 64.2832 15.3956 64.2155 14.9399L63.5412 14.8916L63.5942 14.1282L66.106 14.3062C66.4565 14.3334 66.7068 14.2911 66.854 14.1765C67.0601 14.0377 67.1779 13.7389 67.2103 13.2802C67.2309 12.9423 67.1073 12.6707 66.8334 12.4594C66.5625 12.2482 66.2709 12.1335 65.9588 12.1094L65.4405 12.1516L65.1107 12.6616L65.3198 13.0267L65.7056 13.1203L66.1178 13.0328L66.1973 12.9724L66.4565 13.4854L66.2032 13.585L65.6702 13.6635C65.2049 13.6303 64.8162 13.5518 64.5041 13.4251C64.0329 13.235 63.8121 12.9362 63.8386 12.5319C63.868 12.1003 64.1507 11.7865 64.6896 11.5903C65.0754 11.4696 65.5495 11.4304 66.1149 11.4696C66.801 11.5209 67.3782 11.705 67.8493 12.0219C68.3823 12.3991 68.6267 12.8879 68.5855 13.4884ZM72.2782 13.2893L72.4314 13.5669L72.502 14.3183C72.4255 14.7619 72.1811 15.0576 71.7747 15.2025C71.5273 15.2809 71.2387 15.29 70.9089 15.2326L70.8147 15.2145L70.7794 15.1964L70.9825 15.6129C71.1946 15.9176 71.4831 16.0987 71.8454 16.1651C72.2341 16.2345 72.6287 16.156 73.0321 15.9327C73.568 15.6159 73.8566 15.3533 73.892 15.1512L73.8242 15.5374L74.2188 13.7902L73.2117 13.5548L73.2323 13.4613L72.2782 13.2893ZM73.5857 16.6027C73.3943 16.7234 73.1145 16.832 72.7494 16.9225L72.1693 17.001L71.5833 16.9618C70.641 16.7928 70.0255 16.2888 69.7369 15.4559C69.6368 15.1632 69.5897 14.7438 69.5926 14.1885L69.7664 14.273L70.2169 14.3937C70.5879 14.4631 70.8559 14.4481 71.0238 14.3485L71.3241 13.9079L71.2181 13.2832L71.0326 13.066L69.2422 12.7431L69.4042 11.8076L74.3631 12.7039L74.3366 12.8487L76.3155 13.3164L76.6011 13.3798L79.1631 14.2791L78.8597 15.13L77.8791 14.8434L76.8073 18.9443L75.5734 18.6064L76.6453 14.5054L75.65 14.2308L75.6735 14.1372L75.4644 14.0859L74.531 18.2231L73.2883 17.9274L73.5857 16.6027ZM78.4357 13.9894L77.8026 13.7781C77.6023 13.2742 77.3491 12.8095 77.0458 12.381L76.6011 11.871C76.4362 11.7111 76.0622 11.4214 75.4821 10.9989L76.4215 10.1117C76.9368 10.6036 77.3727 11.1618 77.726 11.7865C77.9027 12.1184 78.0617 12.5137 78.2001 12.9694L78.4357 13.9894ZM84.3811 17.4687L83.1149 16.8018L83.1974 17.1066L83.1149 17.8248C82.9058 18.377 82.4877 18.6909 81.8516 18.7663C81.4452 18.7995 81.0182 18.7271 80.5648 18.549L80.3704 18.4736V18.8961L80.4028 19.1224L80.5795 19.3215L80.8651 19.4332L82.3905 20.0337L82.046 20.9541L80.3145 20.2721L79.9846 20.1001L79.5518 19.6112L79.4399 19.2944L79.3486 18.8629L79.2779 18.4042L79.2485 18.033L78.4563 17.7192L78.7891 16.835L80.818 17.6347L81.2833 17.7614C81.616 17.7826 81.8398 17.6377 81.9576 17.3329C82.0842 16.9919 82.0813 16.7083 81.9488 16.4789L81.6926 16.2405L78.8627 15.127L79.1954 14.2429L83.7421 16.0323L84.8052 16.6147L84.3811 17.4687ZM86.3247 20.9601L86.3276 20.3566L86.1421 20.1182L85.6327 19.8647L85.4442 19.8285C85.1321 19.8164 84.9112 19.9462 84.7816 20.2178L84.7522 20.8243L85.2027 21.283L85.8152 21.4309C86.0273 21.3916 86.1951 21.2347 86.3247 20.9601ZM84.3576 17.4657L84.761 16.6117L87.9384 18.2684L89.5669 19.1767L93.4186 21.9409L94.143 22.5685L95.8804 23.9566L95.3091 24.705L94.7879 24.2856L92.2377 27.6321L91.2306 26.8264L93.7808 23.4799L92.968 22.828L92.9945 22.7918L91.5811 21.7779L91.6341 22.0072L91.6665 22.2215C91.6871 22.5746 91.5928 22.9005 91.3838 23.2053C91.1511 23.5462 90.8449 23.7243 90.4621 23.7424C90.0822 23.7605 89.7141 23.6428 89.3666 23.3923L89.3136 23.5794L89.2547 23.7786L89.237 23.9446L89.3754 24.2373L89.5138 24.3851L90.9214 25.3961L90.412 26.1384L88.6245 24.8529L88.5009 24.7684L88.2034 24.5059L88.0297 24.0985C87.959 23.8359 88.0061 23.4557 88.1652 22.9578L88.3006 22.6259L87.638 22.1491L88.1534 21.3947L89.3283 22.2396L89.4815 22.3482L89.9291 22.5263L90.5121 22.1762C90.6476 21.9771 90.6594 21.6934 90.5445 21.3162L90.3001 20.8605L88.7129 19.7199L87.6204 19.0409L84.3576 17.4657ZM88.545 21.3222L87.3436 20.7187L87.376 20.9662L87.2582 21.5003C87.0255 21.9891 86.6869 22.2607 86.2452 22.309C85.9006 22.3271 85.4501 22.2004 84.8994 21.9228C84.3164 21.6331 83.9277 21.3041 83.7304 20.936C83.5066 20.5256 83.5125 20.0699 83.748 19.572C83.9807 19.0832 84.3517 18.8478 84.8611 18.8719C84.9642 18.884 85.1968 18.9534 85.5561 19.0771L88.8366 20.7157L88.545 21.3222ZM92.3761 25.3387L90.8184 24.1649L91.3484 23.3863L92.9857 24.5421L92.3761 25.3387ZM97.8239 27.098L98.4894 26.4402L100.645 28.7275L100.666 28.7094L100.981 29.0806L101.281 29.4005L101.263 29.4156L102.615 31.0089L102.597 31.024L104.947 34.3343L104.199 34.8926L101.758 31.4494L101.761 31.4464L101.481 31.1175L98.354 33.9028L97.5177 32.913L98.1567 32.3457L97.7591 32.2039C97.3351 31.9926 97.0053 31.7603 96.7668 31.5068C96.4075 31.1266 96.1925 30.7282 96.116 30.3118C96.0247 29.832 96.1543 29.4186 96.5047 29.0685C96.8551 28.7215 97.2585 28.6038 97.715 28.7124C98.0919 28.8181 98.4836 29.0836 98.887 29.5121L99.1343 29.7747L99.4111 30.2001L99.5407 30.5079L99.0872 30.9576L99.0107 30.7856L98.7515 30.3993L98.0536 29.8712L97.4499 30.0251L97.2144 30.692L97.5766 31.2805C97.7856 31.5038 98.0507 31.6697 98.3628 31.7814L98.7132 31.8508L100.645 30.1277L100.298 29.7234L97.8239 27.098ZM103.666 30.0312L103.104 30.2213L102.589 29.9708L102.418 29.3824L102.721 28.8392L103.298 28.6611L103.84 28.9327L103.973 29.494L103.666 30.0312ZM100.492 31.9534C100.571 31.9775 101.054 32.3306 101.343 32.5841C101.62 32.8315 101.835 33.082 102.005 33.3204C102.332 33.7821 102.506 34.2468 102.53 34.7115C102.55 35.1762 102.374 35.5504 101.997 35.828C101.581 36.1389 101.16 36.2083 100.736 36.0363C100.386 35.8944 100.047 35.5957 99.7262 35.143C99.5201 34.8503 99.3817 34.5606 99.3081 34.2679L99.2551 33.9058L99.7586 33.5316L99.8558 33.8455L100.065 34.2498C100.477 34.8352 100.884 34.9801 101.281 34.6844L101.546 34.1744C101.546 33.9692 101.434 33.7097 101.213 33.3958L100.551 32.8164L99.844 32.4332L100.492 31.9534ZM101.929 37.5602C102.126 37.4274 102.356 37.3791 102.621 37.4153C102.889 37.4877 103.086 37.6205 103.21 37.8197L103.325 38.5228L103.186 38.8547L102.918 39.1233L102.209 39.2651L101.897 39.1414L101.629 38.8728C101.493 38.6616 101.458 38.4202 101.517 38.1486L101.929 37.5602ZM109.173 44.0843L108.893 43.4687L105.139 45.2642L104.6 44.0783L108.354 42.2828L107.919 41.3232L108.758 40.9248L109.453 42.4578L109.659 42.2798L110.059 42.0474C110.575 41.8332 111.046 41.8452 111.473 42.0806C111.897 42.316 112.233 42.7445 112.48 43.3661C112.771 44.1054 112.819 44.8417 112.624 45.572C112.495 46.079 112.241 46.5769 111.862 47.0688L111.379 47.5999L111.929 49.2384L111.782 49.2958L112.356 51.3538L111.47 51.6163L111.284 50.9615L107.303 52.1324L106.95 50.874L109.467 50.1347L109.382 49.8722L109.244 49.7092L108.773 49.4467L108.543 49.4105L107.945 49.6217L107.689 48.8612L108.275 48.653L108.664 48.2155L108.652 47.5456L108.178 46.9511L107.439 46.8575C107.123 46.9692 106.941 47.1895 106.891 47.5184C106.855 47.7417 106.891 48.0042 106.994 48.306L107.044 48.4599L107.088 48.5927L106.42 48.828L106.373 48.6983L106.302 48.484C106.108 47.9046 106.034 47.3977 106.087 46.9631C106.163 46.2691 106.537 45.8044 107.2 45.572C107.639 45.4151 108.066 45.4845 108.487 45.7742C108.905 46.0669 109.202 46.4713 109.376 46.9843C109.538 47.4701 109.568 47.9167 109.465 48.3271L109.217 48.825L109.438 48.9608L109.647 49.1117L109.868 49.329L110.036 49.5885L110.174 49.8842L109.476 50.1317L110.934 49.7032L110.648 48.6862L110.754 48.656L109.526 45.0017L109.173 44.0481L110.003 43.6498L110.451 44.8417L110.955 46.3415C111.27 46.1725 111.532 45.8496 111.738 45.3698C111.932 44.89 111.923 44.38 111.708 43.8338L111.476 43.3872L111.164 43.1488C110.937 43.0372 110.687 43.0372 110.413 43.1488L110.074 43.3299L109.918 43.4748L110.012 43.683L109.173 44.0843ZM108.372 52.9894L109.073 53.095L109.491 53.6804L109.364 54.3805L109.123 54.6461L108.781 54.803L108.066 54.6883L107.815 54.465L107.651 54.115L107.789 53.3968L108.372 52.9894Z" fill="#2E3192"/>
<path fill-rule="evenodd" clip-rule="evenodd" d="M62.7974 19.2773C86.7942 19.2773 106.247 39.2118 106.247 63.8026C106.247 88.3933 86.7942 108.328 62.7974 108.328C38.8007 108.328 19.3477 88.3933 19.3477 63.8026C19.3477 39.2118 38.8007 19.2773 62.7974 19.2773ZM62.7974 19.9562C86.429 19.9562 105.585 39.586 105.585 63.8026C105.585 88.0192 86.429 107.652 62.7974 107.652C39.1658 107.652 20.0073 88.0192 20.0073 63.8026C20.0073 39.586 39.1658 19.9562 62.7974 19.9562Z" fill="#2E3192"/>
<path fill-rule="evenodd" clip-rule="evenodd" d="M62.7974 0.884795C96.7062 0.884795 124.195 29.0545 124.195 63.8026C124.195 98.5508 96.7062 126.72 62.7974 126.72C28.8886 126.72 1.39939 98.5508 1.39939 63.8026C1.39939 29.0545 28.8886 0.884795 62.7974 0.884795ZM62.7974 0.20583C97.0713 0.20583 124.858 28.6803 124.858 63.8026C124.858 98.925 97.0713 127.399 62.7974 127.399C28.5235 127.399 0.736816 98.925 0.736816 63.8026C0.736816 28.6803 28.5235 0.20583 62.7974 0.20583Z" fill="#2E3192"/>
<path fill-rule="evenodd" clip-rule="evenodd" d="M62.7975 5.06795C94.4506 5.06795 120.114 31.3637 120.114 63.8033C120.114 96.24 94.4506 122.536 62.7975 122.536C31.1414 122.536 5.48086 96.24 5.48086 63.8033C5.48086 31.3637 31.1414 5.06795 62.7975 5.06795ZM62.7975 2.88318C95.6285 2.88318 122.243 30.1596 122.243 63.8033C122.243 97.447 95.6285 124.72 62.7975 124.72C29.9664 124.72 3.35181 97.447 3.35181 63.8033C3.35181 30.1596 29.9664 2.88318 62.7975 2.88318Z" fill="#2E3192"/>
<path fill-rule="evenodd" clip-rule="evenodd" d="M62.7976 7.89164C92.9312 7.89164 117.358 32.923 117.358 63.8025C117.358 94.682 92.9312 119.713 62.7976 119.713C32.664 119.713 8.23728 94.682 8.23728 63.8025C8.23728 32.923 32.664 7.89164 62.7976 7.89164ZM62.7976 7.21268C93.2964 7.21268 118.02 32.5488 118.02 63.8025C118.02 95.0562 93.2964 120.392 62.7976 120.392C32.2988 120.392 7.57471 95.0562 7.57471 63.8025C7.57471 32.5488 32.2988 7.21268 62.7976 7.21268Z" fill="#2E3192"/>
<path fill-rule="evenodd" clip-rule="evenodd" d="M62.7975 24.1564C84.1646 24.1564 101.486 41.9062 101.486 63.8022C101.486 85.6982 84.1646 103.451 62.7975 103.451C41.4304 103.451 24.1093 85.6982 24.1093 63.8022C24.1093 41.9062 41.4304 24.1564 62.7975 24.1564ZM62.7975 22.0109C85.3218 22.0109 103.579 40.7202 103.579 63.8022C103.579 86.8841 85.3218 105.594 62.7975 105.594C40.2731 105.594 22.0156 86.8841 22.0156 63.8022C22.0156 40.7202 40.2731 22.0109 62.7975 22.0109Z" fill="#2E3192"/>
<path fill-rule="evenodd" clip-rule="evenodd" d="M62.7974 26.4671C82.9189 26.4671 99.2299 43.1818 99.2299 63.8014C99.2299 84.424 82.9189 101.139 62.7974 101.139C42.676 101.139 26.3621 84.424 26.3621 63.8014C26.3621 43.1818 42.676 26.4671 62.7974 26.4671ZM48.0207 31.1294H47.7085V31.4462H44.911V31.7661H44.5989V32.086H44.2868V33.9961H44.5989V34.316H45.5324V34.6359H46.1537V36.8659H45.8445V38.4592H46.1537V39.7357H46.4659V40.3724H46.778V40.6923H47.3994V41.0091H47.7085V41.329H48.3328V41.6489H48.645V41.9657H48.9542V42.2856H48.645V42.9223H48.3328V43.8789H48.0207V44.5156H47.7085V45.7921H47.3994V46.112H47.0872V46.7487H46.778V47.0686H46.4659V47.3854H46.1537V47.7053H45.8445V48.342H45.5324V48.6619H45.2202V48.9787H44.911V49.2986H44.5989V49.9353H44.2868V50.2552H43.9776V50.572H43.6654V50.8919H43.3562V51.5286H43.0441V51.8485H42.7349V52.1684H39.3101V52.4852H39.0009V53.122H38.6888V53.4418H38.3796V54.0785H38.0674V55.0351H38.3796V55.6749H38.6888V55.9917H39.0009V56.3116H39.3101V56.6315H39.6223V57.9049H39.9344V58.2248H40.2436V58.5447H40.5558V59.1814H40.8679V59.8181H40.2436V60.138H39.3101V60.4548H38.0674V60.7747H35.267V61.4114H35.5762V62.0481H35.8883V63.0047H36.2005V63.3246H36.5097V63.6445H37.134V63.9613H38.6888V64.2812H38.0674V64.598H36.8218V65.8745H37.134V66.5112H37.4432V66.8311H38.0674V67.151H38.3796V67.4678H38.6888V67.7877H39.3101V68.1045H39.6223V68.4244H39.9344V68.7443H40.2436V69.0611H42.1106V68.7443H42.7349V68.4244H43.0441V68.1045H43.3562V67.7877H43.6654V66.8311H43.9776V66.5112H44.2868V73.2074H44.5989V75.4374H44.911V76.0772H45.2202V77.0307H45.5324V78.3072H45.8445V78.9439H46.1537V80.2204H46.4659V81.177H46.778V81.8137H47.0872V82.7703H47.3994V83.7269H47.7085V84.3636H48.0207V85.3202H48.3328V85.9569H48.645V86.9135H48.9542V87.5532H49.2663V88.5068H49.5755V89.1466H49.8877V89.7833H50.1998V90.42H50.509V90.7399H50.8211V91.3766H51.1333V91.6965H51.4425V92.3332H51.7546V92.9699H52.0668V94.5662H52.376V95.203H52.6881V95.8397H52.9973V96.4764H53.3095V96.7963H53.6216V97.433H53.9308V97.7529H54.2429V98.3896H54.5551V98.7095H55.4856V98.3896H56.4191V98.0727H56.7313V97.433H57.0434V97.1131H57.6647V96.7963H58.2861V96.4764H58.9074V94.8831H59.2196V94.2464H59.5317V93.9265H59.8409V93.6097H60.1531V93.2898H60.4652V89.4634H60.7773V89.1466H61.0865V88.5068H61.3987V84.0437H61.0865V80.5372H61.3987V80.2204H62.02V79.9005H62.6414V79.5806H62.9535V79.2638H63.2657V78.9439H63.887V78.6271H64.1962V78.3072H64.5083V77.9873H65.1297V77.6705H65.4418V77.3506H65.754V77.0307H66.0632V76.7139H66.3753V76.394H66.6845V76.0772H66.9967V75.7573H67.3088V75.4374H67.618V75.1206H67.9301V74.8007H68.2423V74.4808H68.5515V74.164H68.8636V73.8441H69.1728V73.5242H69.485V72.8875H69.7971V72.5707H70.1063V72.2508H70.4185V71.6141H70.7306V71.2942H71.0398V70.6575H71.3519V70.3376H71.9733V70.0177H72.5976V69.7009H73.2189V69.381H73.5281V69.0611H73.8403V68.7443H74.1524V68.1045H74.4645V67.151H74.7737V66.5112H75.0859V66.1944H75.398V65.8745H75.7072V65.5546H76.0194V65.2378H76.6407V65.5546H78.8169V63.6445H78.5047V62.6879H78.1955V62.0481H77.8834V61.7313H77.5742V61.4114H77.2621V59.4982H76.9529V59.1814H76.6407V58.8615H76.3286V58.5447H76.0194V57.9049H76.3286V57.5881H76.6407V57.2682H76.9529V56.6315H76.6407V55.9917H76.3286V55.6749H76.0194V55.0351H76.3286V54.7183H78.5047V55.0351H78.8169V55.6749H79.129V56.3116H79.4382V56.6315H79.7504V56.9483H83.7935V57.5881H83.4843V57.9049H83.1722V58.2248H82.863V58.5447H82.5508V61.0946H82.863V61.7313H83.1722V62.0481H83.7935V61.7313H84.1057V60.7747H84.4178V60.138H84.727V61.7313H85.0391V62.368H85.3513V63.0047H85.6605V63.3246H85.9726V63.6445H86.594V63.0047H86.9061V62.368H87.2153V59.4982H86.9061V58.8615H87.2153V58.5447H87.8396V58.2248H88.4609V57.9049H88.7701V57.2682H89.0823V56.3116H88.7701V55.0351H89.0823V54.7183H89.3944V54.0785H89.7036V53.4418H90.0158V51.2118H90.3279V50.8919H90.9492V50.572H91.2614V50.2552H91.8827V49.9353H92.5041V49.6185H92.8162V49.2986H93.1284V48.9787H93.4376V47.7053H93.1284V47.3854H91.2614V45.7921H90.9492V45.4722H90.6371V45.1554H90.0158V45.4722H89.7036V45.7921H89.3944V46.112H87.5274V46.4288H87.2153V46.7487H86.594V47.0686H86.2848V47.3854H85.6605V47.7053H85.3513V48.0221H84.727V48.342H84.4178V48.6619H84.1057V49.2986H83.7935V49.9353H83.1722V50.2552H82.2387V50.572H81.9295V51.2118H82.2387V51.5286H82.5508V52.4852H81.6173V52.8051H77.5742V52.4852H77.2621V52.1684H76.9529V51.2118H76.6407V50.572H75.398V50.8919H75.0859V51.2118H74.7737V54.0785H74.4645V54.3984H73.8403V54.7183H71.6641V54.3984H69.7971V54.0785H69.1728V53.7617H68.2423V53.4418H67.618V53.122H65.754V52.8051H63.5749V52.4852H62.6414V52.1684H62.3322V51.8485H61.7079V51.5286H61.0865V51.2118H60.7773V50.8919H60.1531V50.2552H59.8409V49.9353H59.5317V48.9787H59.8409V48.0221H60.1531V46.4288H59.8409V46.112H59.5317V45.7921H58.2861V45.4722H57.6647V43.2422H57.9739V41.0091H57.6647V40.6923H57.3526V40.3724H57.0434V38.4592H57.3526V38.1394H57.6647V37.8225H57.9739V37.1858H58.2861V36.2292H58.5982V35.5895H58.9074V34.316H58.5982V33.6793H58.2861V33.3594H57.9739V33.0395H56.7313V33.3594H56.1099V33.6793H55.4856V33.9961H55.1764V34.316H54.5551V34.6359H53.6216V34.316H52.9973V33.9961H52.6881V33.6793H52.376V33.3594H52.0668V33.0395H50.8211V32.7227H50.509V32.4028H50.1998V32.086H49.8877V31.7661H49.5755V31.1294H49.2663V30.8095H48.0207V31.1294Z" fill="#2E3192"/>
<path fill-rule="evenodd" clip-rule="evenodd" d="M11.9169 56.3669L13.828 57.6433L15.7274 56.3518L15.6037 58.6844L17.6444 59.7255L15.6126 60.7817L15.7539 63.1143L13.8428 61.8378L11.9434 63.1294L12.0671 60.7968L10.0264 59.7557L12.0582 58.6995L11.9169 56.3669Z" fill="#2E3192"/>
<path fill-rule="evenodd" clip-rule="evenodd" d="M109.595 56.3669L111.503 57.6433L113.405 56.3518L113.281 58.6844L115.322 59.7255L113.29 60.7817L113.432 63.1143L111.521 61.8378L109.621 63.1294L109.745 60.7968L107.701 59.7557L109.736 58.6995L109.595 56.3669Z" fill="#2E3192"/>
<path fill-rule="evenodd" clip-rule="evenodd" d="M62.7974 19.2773C86.7942 19.2773 106.247 39.2118 106.247 63.8026C106.247 88.3933 86.7942 108.328 62.7974 108.328C38.8007 108.328 19.3477 88.3933 19.3477 63.8026C19.3477 39.2118 38.8007 19.2773 62.7974 19.2773ZM62.7974 19.9562C86.429 19.9562 105.585 39.586 105.585 63.8026C105.585 88.0192 86.429 107.652 62.7974 107.652C39.1658 107.652 20.0073 88.0192 20.0073 63.8026C20.0073 39.586 39.1658 19.9562 62.7974 19.9562Z" fill="#2E3192"/>
<path fill-rule="evenodd" clip-rule="evenodd" d="M62.7974 19.2773C86.7942 19.2773 106.247 39.2118 106.247 63.8026C106.247 88.3933 86.7942 108.328 62.7974 108.328C38.8007 108.328 19.3477 88.3933 19.3477 63.8026C19.3477 39.2118 38.8007 19.2773 62.7974 19.2773ZM62.7974 19.9562C86.429 19.9562 105.585 39.586 105.585 63.8026C105.585 88.0192 86.429 107.652 62.7974 107.652C39.1658 107.652 20.0073 88.0192 20.0073 63.8026C20.0073 39.586 39.1658 19.9562 62.7974 19.9562Z" fill="#2E3192"/>
</g>
</svg>
