<svg width="541" height="205" viewBox="0 0 541 205" fill="none" xmlns="http://www.w3.org/2000/svg">
<path d="M479.105 82.4001C479.105 66.1895 479.105 66.1894 479.105 66.1894C488.246 69.1172 496.357 70.4968 503.6 70.4968C513.434 70.4968 518.266 67.9124 518.266 62.7378C518.266 60.8402 517.574 59.1173 516.194 57.9066C514.645 56.5271 511.018 54.4608 504.811 52.0452C494.115 47.732 487.041 43.9369 483.763 40.6599C479.449 36.5214 477.382 31.3468 477.382 24.9673C477.382 16.8649 480.485 10.6542 486.698 6.51566C492.735 2.20254 500.671 0.130371 510.499 0.130371C516.194 0.130371 523.268 0.997655 532.065 2.72057C534.138 3.06415 534.138 3.06415 534.138 3.06415C534.138 18.7568 534.138 18.7568 534.138 18.7568C526.546 15.6543 519.303 14.1002 512.747 14.1002C503.6 14.1002 498.942 16.6904 498.942 21.6904C498.942 23.588 499.978 25.1421 501.702 26.347C503.256 27.383 507.571 29.4552 514.645 32.5577C524.648 37.0396 531.204 40.8347 534.656 44.1117C538.621 48.0814 540.52 53.0814 540.52 59.2863C540.52 68.256 536.723 74.9847 528.962 79.6413C522.581 83.4363 514.47 85.3339 504.462 85.3339C496.013 85.3339 487.559 84.2977 479.105 82.4001ZM391.642 83.7798V1.51584H418.378L446.5 56.5272V1.51584H462.715V83.7798H436.841L407.857 27.9011V83.7798H391.642ZM316.766 83.7798V1.51584H375.595V16.347H338.851V34.9732H370.937V48.5936H338.851V68.0872H376.632V83.7798H316.766ZM195.836 83.7798V1.51584H225.507L246.211 54.1175L267.428 1.51584H295.724V83.7798H273.984V25.4855L249.832 84.4666H235.684L212.051 25.4855V83.7798H195.836ZM120.966 83.7798V1.51584H179.789V16.347H143.044V34.9732H175.132V48.5936H143.044V68.0872H180.826V83.7798H120.966ZM76.9723 83.7798H99.9165V1.51584H76.9723V83.7798ZM2.44717 82.4002C2.44717 66.1896 2.44717 66.1896 2.44717 66.1896C11.763 69.1174 19.8713 70.4969 27.1167 70.4969C36.7777 70.4969 41.7802 67.9125 41.7802 62.7379C41.7802 60.8404 41.0903 59.1175 39.7104 57.9067C38.1575 56.5273 34.3626 54.4609 28.3242 52.0453C17.6285 47.5634 10.5555 43.7683 7.27751 40.66C2.96474 36.5215 0.894531 31.3469 0.894531 24.9674C0.894531 16.865 3.9998 10.6543 10.2102 6.51581C16.2486 2.20269 24.1839 0.130521 34.0173 0.130521C39.538 0.130521 47.301 1.16658 57.652 3.06415C57.652 18.7568 57.652 18.7568 57.652 18.7568C49.8884 15.6543 42.8154 14.1002 36.26 14.1002C27.1167 14.1002 22.4588 16.6904 22.4588 21.6904C22.4588 23.5879 23.4939 25.142 25.2191 26.3469C26.7719 27.383 31.0845 29.4552 37.9852 32.5576C48.1633 37.0396 54.7193 40.8346 58.1696 44.1117C61.9623 48.0814 64.035 53.0814 64.035 59.2863C64.035 68.2559 60.0642 74.9847 52.4765 79.6413C46.0935 83.4363 37.9852 85.3339 27.9795 85.3339C19.526 85.3339 11.0731 84.2978 2.44717 82.4002Z" fill="#0098A2"/>
<path d="M315.326 169.325C278.232 169.325 278.232 169.325 278.232 169.325C278.063 174.156 278.232 177.433 278.232 179.156C278.407 183.126 278.75 186.397 279.443 188.987C280.992 195.885 286.343 200.716 294.797 200.716C314.115 200.716 314.115 200.716 314.115 200.716C314.115 204.68 314.115 204.68 314.115 204.68C284.619 204.68 284.619 204.68 284.619 204.68C278.925 204.68 273.918 202.957 269.609 199.505C265.295 196.059 262.535 191.572 261.499 185.885C260.812 181.572 260.462 175.879 260.812 169.325C261.673 148.458 268.916 137.765 282.546 136.56C284.445 136.56 287.03 136.211 290.657 136.211C293.935 136.211 296.346 136.56 297.725 136.56C310.319 137.94 316.188 148.801 315.326 169.325ZM302.558 163.807C302.732 160.186 302.558 157.253 302.558 155.012C302.214 151.042 301.178 147.596 299.105 144.837C297.038 141.904 294.278 140.524 290.657 140.524C282.721 140.524 278.75 148.283 278.576 163.807H302.558ZM329.469 204.68C338.266 204.68 338.266 204.68 338.266 204.68C340.514 204.68 340.514 204.68 340.514 204.68C340.683 204.68 340.683 204.68 340.683 204.68C343.443 204.68 343.442 204.68 343.442 204.68C346.895 204.68 346.895 204.68 346.895 204.68C365.183 204.855 368.805 195.541 367.943 186.746C366.907 174.674 358.453 169.668 350.517 165.361C343.274 160.53 335.338 156.391 336.887 149.319C337.923 145.006 341.376 141.56 345.684 141.042C347.757 140.699 348.962 140.524 351.553 140.524C365.183 140.524 365.183 140.524 365.183 140.524C367.943 140.524 367.943 140.524 367.943 140.524C368.63 136.211 368.63 136.211 368.63 136.211C364.834 136.211 364.834 136.211 364.834 136.211C344.822 136.211 344.822 136.211 344.822 136.211C328.432 136.211 322.913 146.042 322.913 155.186C322.913 158.632 323.949 161.735 325.504 164.15C331.885 177.084 351.897 177.433 350.517 191.054C349.999 196.921 346.552 200.367 334.301 200.541C320.671 200.541 320.671 200.541 320.671 200.541C320.496 204.68 320.496 204.68 320.496 204.68M431.08 204.68C430.219 202.095 429.526 199.505 429.182 197.095C429.013 196.577 429.013 196.059 429.013 195.541C428.839 195.023 428.839 194.505 428.839 193.987C428.321 182.608 429.013 173.12 429.357 165.186C429.7 159.668 429.875 155.186 429.875 151.217C429.7 146.904 428.838 143.109 426.766 140.524C424.699 137.94 421.59 136.211 416.932 136.386C384.326 136.211 384.326 136.211 384.326 136.211C384.158 140.006 384.158 140.006 384.158 140.006C404.687 140.006 404.687 140.006 404.687 140.006C409.514 140.006 412.105 142.078 413.31 145.355C414.521 148.458 414.347 152.421 413.654 157.078C413.485 158.114 413.485 158.114 413.485 158.114C412.792 157.77 412.792 157.77 412.792 157.77C402.271 157.945 393.992 159.15 387.436 161.909C381.049 164.499 376.74 168.463 374.324 173.638C371.564 179.156 372.251 188.294 375.878 195.023C376.565 196.403 377.427 197.607 378.289 198.643C379.325 199.68 380.187 200.541 381.398 201.402C383.121 202.439 385.019 203.3 386.918 203.818C391.919 205.372 402.446 204.68 407.104 203.993C409.863 203.644 412.105 203.131 414.003 202.264C415.383 201.752 415.383 201.752 415.383 201.752C415.383 203.3 415.383 203.3 415.383 203.3C415.383 204.68 415.383 204.68 415.383 204.68M412.967 161.566C414.003 161.566 414.003 161.566 414.003 161.566C414.003 162.771 414.003 162.771 414.003 162.771C413.31 187.264 413.31 187.264 413.31 187.264C413.31 189.674 412.623 191.571 411.412 193.469C411.069 193.818 410.894 193.987 410.55 194.33C410.382 194.68 410.032 195.023 409.689 195.198C409.689 195.367 409.689 195.367 409.689 195.367C408.827 196.228 407.616 196.921 406.411 197.439C406.236 197.439 405.893 197.607 405.724 197.607C404.169 198.126 402.446 198.475 400.548 198.475C397.438 198.475 395.022 197.957 393.299 196.746C391.232 195.541 390.021 193.644 389.503 191.228C387.954 184.849 388.297 176.915 391.575 171.048C392.262 170.017 392.955 168.981 393.817 167.945C394.679 166.909 395.715 166.048 396.92 165.361C398.818 164.325 400.891 163.463 403.133 162.771C403.476 162.771 403.995 162.602 404.338 162.427C406.929 161.909 409.863 161.566 412.967 161.566ZM53.9664 117.934C90.8802 117.759 90.8802 117.759 90.8802 117.759C91.0545 110 91.0545 110 91.0545 110C49.477 110 49.477 110 49.477 110C40.3359 110 29.6402 112.066 20.3244 118.62C18.601 119.825 16.7029 121.205 15.1483 122.934C13.4249 124.482 11.8704 126.379 10.3158 128.277V128.452C3.93448 136.903 1 146.56 1 157.078C1 159.15 1.17478 161.222 1.34908 163.289C1.51786 165.361 1.86713 167.427 2.37963 169.668C3.24722 174.843 4.97064 179.499 7.21224 183.812C9.45384 187.951 12.2137 191.571 15.6663 194.849C19.8059 198.475 24.9821 202.095 29.2965 203.475C33.4362 204.854 39.1304 204.68 43.2701 204.68C43.0953 204.68 79.1533 204.854 91.2288 204.68C90.8797 195.367 91.2289 186.397 91.5724 179.674C91.916 174.499 92.0905 170.017 91.9161 166.391C91.5725 162.253 90.7108 158.632 88.4692 156.048C86.3964 153.632 83.1184 152.078 78.1171 152.078C73.4592 152.078 73.4592 152.078 73.4592 152.078C58.2745 152.078 58.2745 152.078 58.2745 152.078C58.2745 155.698 58.2745 155.698 58.2745 155.698C65.5233 155.53 65.5233 155.53 65.5233 155.53C70.1812 155.698 72.7663 157.253 74.1463 160.186C75.3573 162.771 75.5261 166.222 75.3573 170.535C75.3573 174.325 75.3573 177.951 75.3573 181.572C75.3573 183.469 75.3573 187.951 75.3573 192.608C75.3573 193.469 75.3573 193.469 75.3573 193.469C74.4956 193.469 74.4956 193.469 74.4956 193.469C49.1334 193.469 49.1334 193.469 49.1334 193.469C48.097 193.469 48.0969 193.469 48.0969 193.469C46.3735 193.469 46.3735 193.469 46.3735 193.469C45.8556 193.469 45.1684 193.469 44.4755 193.3C38.4377 192.439 33.0928 188.644 28.9472 182.951C24.8075 177.433 22.2224 170.017 21.5295 161.735C21.5295 160.186 21.3608 158.632 21.5295 157.078C21.8787 141.217 27.2238 128.108 38.0942 121.898C40.3358 120.518 42.5774 119.657 45.1684 118.964C47.7535 118.277 50.5133 117.934 53.4477 117.934C53.6165 117.934 53.792 117.934 53.9664 117.934ZM10.3158 128.452C10.3158 128.452 10.3158 128.452 10.3158 128.277V128.452ZM159.369 204.68C158.507 201.921 157.82 199.505 157.47 197.095C157.302 196.577 157.302 196.059 157.127 195.541C157.127 195.023 157.127 194.505 157.127 193.987C156.44 182.608 156.783 173.12 157.127 165.186C157.302 159.668 157.645 155.186 157.302 151.217C157.127 146.903 156.265 143.108 154.198 140.524C152.126 137.94 149.022 136.211 144.19 136.385C139.707 136.385 139.707 136.385 139.707 136.385C111.585 136.385 111.585 136.385 111.585 136.385C111.585 140.006 111.585 140.006 111.585 140.006C132.114 140.006 132.114 140.006 132.114 140.006C136.947 140.006 139.532 142.078 140.737 145.355C141.948 148.458 141.948 152.421 141.255 157.078C141.255 158.114 141.255 158.114 141.255 158.114C140.393 157.77 140.393 157.77 140.393 157.77C130.041 157.945 121.593 159.15 115.206 161.909C108.824 164.499 104.51 168.463 102.094 173.638C99.5088 179.156 100.37 188.294 104.167 195.023C104.854 196.403 105.721 197.607 106.583 198.643C107.445 199.68 108.481 200.541 109.686 201.402C111.41 202.439 113.308 203.3 115.206 203.818C120.207 205.372 130.734 204.854 135.392 203.993C138.152 203.644 140.568 203.131 142.291 202.264C143.671 201.752 143.671 201.752 143.671 201.752C143.671 203.3 143.671 203.3 143.671 203.3C143.846 204.68 143.846 204.68 143.846 204.68C149.022 204.68 154.198 204.68 159.369 204.68ZM140.568 161.566C141.773 161.566 141.774 161.566 141.774 161.566C141.774 162.771 141.774 162.771 141.774 162.771C141.43 187.264 141.43 187.264 141.43 187.264C141.43 189.674 140.737 191.571 139.532 193.469C139.357 193.818 139.014 193.987 138.839 194.33C138.495 194.68 138.327 195.023 137.977 195.198C137.977 195.367 137.977 195.367 137.977 195.367C136.947 196.228 135.91 196.921 134.699 197.439C134.356 197.439 134.181 197.607 133.837 197.607C132.458 198.126 130.734 198.475 128.836 198.475C125.733 198.475 123.316 197.957 121.418 196.746C119.52 195.541 118.315 193.644 117.622 191.228C116.068 184.849 116.068 176.915 119.346 171.048C120.039 170.017 120.726 168.981 121.593 167.945C122.624 166.909 123.485 166.048 124.696 165.361C126.594 164.325 128.661 163.463 130.734 162.771C131.252 162.771 131.596 162.602 132.114 162.427C134.699 161.909 137.634 161.566 140.568 161.566ZM169.896 204.68C170.757 182.089 170.583 158.632 169.378 136.211C186.286 136.211 186.286 136.211 186.286 136.211C186.804 145.873 186.804 145.873 186.804 145.873C191.462 135.693 212.853 131.385 220.958 144.319C223.199 138.626 229.412 135.867 239.764 136.211C247.182 136.903 252.527 139.662 252.527 147.765C252.183 190.541 252.183 190.541 252.183 190.541C252.183 195.366 252.876 200.198 254.774 204.68C237.522 204.68 237.522 204.68 237.522 204.68C237.866 156.048 237.866 156.048 237.866 156.048C238.041 148.114 234.07 144.837 228.375 145.006C222.169 145.006 219.409 148.976 219.409 155.873C219.578 204.68 219.578 204.68 219.578 204.68C204.399 204.68 204.399 204.68 204.399 204.68C204.224 155.873 204.224 155.873 204.224 155.873C204.224 150.18 201.983 145.355 195.426 145.18C189.563 145.18 185.936 148.976 186.454 156.391C185.593 204.68 185.593 204.68 185.593 204.68" fill="#3D3D3B"/>
</svg>
