<svg width="270" height="169" viewBox="0 0 270 169" fill="none" xmlns="http://www.w3.org/2000/svg">
<path d="M0.77002 60.82C0.77002 46.22 10.26 37.46 24.13 37.46V12.64C24.13 5.33997 19.26 0.469971 12.45 0.469971C5.64002 0.469971 0.77002 5.33997 0.77002 12.64V60.82Z" fill="url(#paint0_linear_20_19)"/>
<path d="M42.14 168.61C47.98 168.61 53.33 167.64 58.2 165.93C33.62 170.07 24.13 153.28 24.13 134.3V56.44H52.6C59.17 56.44 63.55 52.55 63.55 46.95C63.55 41.35 59.17 37.46 52.6 37.46H24.13C10.26 37.46 0.77002 46.22 0.77002 60.82V127.73C0.77002 154.5 16.1 168.61 42.14 168.61Z" fill="url(#paint1_linear_20_19)"/>
<path d="M58.2001 165.93C67.9301 162.28 75.4801 155.47 80.3401 145.49L69.3901 125.78C64.5201 140.38 56.0101 148.17 44.3301 148.17C32.1601 148.17 24.1301 141.11 24.1301 125.05V134.3C24.1301 153.28 33.6201 170.07 58.2001 165.93Z" fill="url(#paint2_linear_20_19)"/>
<path d="M158.2 162.04C102.72 170.31 85.2001 140.63 85.2001 102.43C85.2001 74.69 102.23 55.71 126.81 55.71C135.81 55.71 143.36 57.66 150.17 60.82C153.33 62.28 156.01 62.77 158.44 62.77C164.28 62.77 168.17 58.88 168.17 53.04C168.17 49.39 165.98 45.74 160.87 43.31C151.62 38.69 139.7 36.01 126.8 36.01C88.3501 36.01 61.8301 63.26 61.8301 102.92C61.8301 141.85 87.3801 168.86 128.5 168.86C139.71 168.85 149.44 166.66 158.2 162.04Z" fill="url(#paint3_linear_20_19)"/>
<path d="M61.8501 102.91C61.8501 63.25 88.3701 36 126.82 36C139.72 36 151.64 38.68 160.89 43.3C166 45.73 168.19 49.38 168.19 53.03C168.19 58.87 164.3 62.76 158.46 62.76C156.03 62.76 153.35 62.27 150.19 60.81C141.92 56.92 133.89 55.7 126.83 55.7C92.9901 55.71 61.8501 77.12 61.8501 102.91Z" fill="url(#paint4_linear_20_19)"/>
<path d="M207.11 43.79C204.92 45.98 203.7 48.66 203.7 51.82C203.7 59.85 211.24 71.77 228.76 83.94L248.71 97.81C263.31 108.03 269.15 117.76 269.15 132.36C269.15 142.82 265.01 151.83 258.2 158.15C260.63 155.96 262.09 153.04 262.09 149.15C262.09 140.63 253.57 127.25 235.32 114.6L217.07 101.95C201.74 91.24 195.66 81.27 195.66 67.64C195.66 59.61 198.58 52.31 203.45 46.96C204.68 45.73 205.89 44.76 207.11 43.79Z" fill="url(#paint5_linear_20_19)"/>
<path d="M191.3 153.04C191.3 156.93 193.25 160.1 198.36 162.53C205.42 165.94 216.85 168.86 227.07 168.86C239.97 168.86 250.67 164.97 258.22 158.15C260.65 155.96 262.11 153.04 262.11 149.15C262.11 140.63 253.59 127.25 235.34 114.6C243.61 120.44 247.02 125.31 247.02 132.36C247.02 142.82 238.75 149.88 226.82 149.88C215.38 149.88 205.65 144.04 200.3 144.04C194.95 144.04 191.3 147.69 191.3 153.04Z" fill="url(#paint6_linear_20_19)"/>
<path d="M228.77 83.94C220.98 78.34 217.58 73.23 217.58 67.15C217.58 59.36 223.91 54.5 232.91 54.5C244.35 54.5 249.7 59.85 256.51 59.85C261.86 59.85 265.51 56.2 265.51 50.85C265.51 46.96 263.56 43.79 258.45 41.36C250.42 37.47 241.66 36.01 232.17 36.01C222.19 36.01 213.43 38.93 207.11 43.8C204.92 45.99 203.7 48.67 203.7 51.83C203.7 59.85 211.25 71.77 228.77 83.94Z" fill="url(#paint7_linear_20_19)"/>
<path d="M85.21 102.43C85.21 140.63 102.73 170.32 158.21 162.04C175.97 152.79 188.63 134.06 197.38 105.35L202.49 88.56C197.62 82.23 195.68 75.18 195.68 67.63C195.68 59.6 198.6 52.3 203.47 46.95C196.17 54.74 190.09 66.17 185.22 82.2299L179.62 100.72C169.64 133.33 153.83 148.9 129.25 148.9C102.24 148.9 85.21 130.17 85.21 102.43Z" fill="url(#paint8_linear_20_19)"/>
<defs>
<linearGradient id="paint0_linear_20_19" x1="12.4531" y1="6.89677" x2="12.4531" y2="55.0746" gradientUnits="userSpaceOnUse">
<stop stop-color="#FFC708"/>
<stop offset="0.9997" stop-color="#F05731"/>
<stop offset="1" stop-color="#F05731"/>
</linearGradient>
<linearGradient id="paint1_linear_20_19" x1="38.9352" y1="43.9182" x2="26.3363" y2="135.074" gradientUnits="userSpaceOnUse">
<stop stop-color="#F80000"/>
<stop offset="1" stop-color="#EE3984"/>
</linearGradient>
<linearGradient id="paint2_linear_20_19" x1="21.4424" y1="151.754" x2="87.4034" y2="130.824" gradientUnits="userSpaceOnUse">
<stop stop-color="#EE3984"/>
<stop offset="0.9997" stop-color="#7800DA"/>
<stop offset="1" stop-color="#7800DA"/>
</linearGradient>
<linearGradient id="paint3_linear_20_19" x1="111.106" y1="69.2115" x2="135.207" y2="154.2" gradientUnits="userSpaceOnUse">
<stop stop-color="#FF0000"/>
<stop offset="0.9994" stop-color="#EE3984"/>
<stop offset="1" stop-color="#EE3984"/>
</linearGradient>
<linearGradient id="paint4_linear_20_19" x1="61.8478" y1="69.4574" x2="168.18" y2="69.4574" gradientUnits="userSpaceOnUse">
<stop stop-color="#FFC708"/>
<stop offset="1" stop-color="#FA3B00"/>
</linearGradient>
<linearGradient id="paint5_linear_20_19" x1="195.675" y1="100.968" x2="269.159" y2="100.968" gradientUnits="userSpaceOnUse">
<stop stop-color="#FF0000"/>
<stop offset="1" stop-color="#EE3984"/>
</linearGradient>
<linearGradient id="paint6_linear_20_19" x1="254.951" y1="136.435" x2="190.258" y2="153.56" gradientUnits="userSpaceOnUse">
<stop stop-color="#EE3984"/>
<stop offset="1" stop-color="#7800DA"/>
</linearGradient>
<linearGradient id="paint7_linear_20_19" x1="203.705" y1="59.9679" x2="265.509" y2="59.9679" gradientUnits="userSpaceOnUse">
<stop stop-color="#FFC708"/>
<stop offset="1" stop-color="#F05731"/>
</linearGradient>
<linearGradient id="paint8_linear_20_19" x1="122.689" y1="138.979" x2="167.72" y2="65.4077" gradientUnits="userSpaceOnUse">
<stop stop-color="#EE3984"/>
<stop offset="1" stop-color="#7800DA"/>
</linearGradient>
</defs>
</svg>
